<svg width="264" height="165" viewBox="0 0 264 165" fill="none" xmlns="http://www.w3.org/2000/svg">
<g opacity="0.2">
<path d="M91.3875 151.668C91.52 152.175 91.6963 152.671 91.9145 153.152C95.306 151.909 98.7349 150.718 102.201 149.579C102.172 149.444 102.143 149.303 102.106 149.165C101.757 147.733 101.011 146.411 99.9443 145.332C98.5584 143.966 96.7724 143.306 95.0351 143.709C93.2979 144.112 92.0365 145.491 91.4607 147.305C91.0301 148.729 91.0049 150.233 91.3875 151.668Z" fill="#3F3D56"/>
<path d="M96.2604 148.953C99.2378 148.333 100.93 144.818 100.041 141.102C99.1509 137.386 96.016 134.877 93.0385 135.497C90.0611 136.118 88.3686 139.633 89.2583 143.348C90.148 147.064 93.2829 149.573 96.2604 148.953Z" fill="#3F3D56"/>
<path d="M94.171 140.756C97.1485 140.136 98.841 136.621 97.9513 132.905C97.0616 129.19 93.9266 126.68 90.9491 127.301C87.9717 127.921 86.2792 131.436 87.1689 135.152C88.0586 138.867 91.1936 141.377 94.171 140.756Z" fill="#3F3D56"/>
<path d="M92.0774 132.565C95.0549 131.944 96.7473 128.429 95.8576 124.714C94.9679 120.998 91.833 118.489 88.8555 119.109C85.8781 119.729 84.1856 123.244 85.0753 126.96C85.965 130.676 89.0999 133.185 92.0774 132.565Z" fill="#3F3D56"/>
<path d="M89.9838 124.37C92.9612 123.75 94.6537 120.235 93.764 116.52C92.8743 112.804 89.7394 110.295 86.7619 110.915C83.7844 111.535 82.092 115.05 82.9817 118.766C83.8714 122.481 87.0063 124.991 89.9838 124.37Z" fill="#3F3D56"/>
<path d="M94.1177 56.8829C94.6253 55.8207 95.0542 54.7272 95.4011 53.6102L80.7616 54.6844L96.0209 51.241C96.75 47.6617 96.6576 43.9789 95.75 40.4352C94.9542 37.2981 93.5277 34.3303 91.546 31.6891L73.6858 46.5846L89.1476 28.9535C82.8355 22.6676 73.2881 19.6771 63.7992 21.8983C49.6208 25.2052 40.9322 38.8695 44.392 52.4177C45.7673 57.89 49.0643 62.7766 53.7589 66.3004C52.9702 67.9545 52.3707 69.6816 51.9704 71.453L72.5683 76.2641L51.4824 74.5595C51.2302 77.3056 51.451 80.0716 52.1363 82.7526C53.514 88.2246 56.8116 93.1107 61.5057 96.6354C59.0388 101.802 58.4693 107.584 59.8856 113.083C63.3454 126.631 77.6433 134.931 91.8217 131.627C106 128.322 114.689 114.658 111.229 101.11C109.851 95.6377 106.554 90.7516 101.86 87.227C104.326 82.0604 104.896 76.2787 103.48 70.7793C102.108 65.3028 98.8128 60.4113 94.1177 56.8829Z" fill="#B649DE"/>
<path opacity="0.1" d="M52.1412 82.7435C53.5189 88.2155 56.8165 93.1016 61.5105 96.6263C59.0437 101.793 58.4742 107.575 59.8904 113.074C63.3502 126.622 77.6482 134.922 91.8266 131.618C106.005 128.313 114.694 114.649 111.234 101.101C109.856 95.6286 106.559 90.7425 101.864 87.2179C104.241 82.2428 51.4385 79.9966 52.1412 82.7435Z" fill="black"/>
</g>
<g opacity="0.2">
<path d="M157.19 149.167C157.101 149.759 157.066 150.358 157.085 150.956C161.338 151.019 165.608 151.153 169.894 151.356C169.924 151.199 169.953 151.04 169.977 150.878C170.254 149.21 170.047 147.502 169.38 145.933C168.496 143.926 166.849 142.489 164.788 142.212C162.726 141.934 160.715 142.881 159.264 144.57C158.146 145.902 157.43 147.489 157.19 149.167Z" fill="#3F3D56"/>
<path d="M171.458 141.343C172.122 137.031 169.798 133.152 166.266 132.678C162.734 132.205 159.332 135.316 158.667 139.629C158.003 143.941 160.327 147.82 163.859 148.294C167.391 148.767 170.793 145.656 171.458 141.343Z" fill="#3F3D56"/>
<path d="M172.928 131.8C173.592 127.488 171.268 123.608 167.736 123.134C164.204 122.661 160.802 125.773 160.137 130.085C159.473 134.397 161.797 138.277 165.329 138.75C168.861 139.224 172.263 136.112 172.928 131.8Z" fill="#3F3D56"/>
<path d="M174.397 122.258C175.062 117.946 172.737 114.066 169.205 113.593C165.673 113.119 162.271 116.231 161.607 120.543C160.942 124.856 163.267 128.735 166.799 129.209C170.331 129.682 173.733 126.57 174.397 122.258Z" fill="#3F3D56"/>
<path d="M175.87 112.715C176.534 108.403 174.21 104.523 170.678 104.05C167.146 103.576 163.744 106.688 163.079 111C162.415 115.312 164.739 119.192 168.271 119.665C171.803 120.139 175.205 117.027 175.87 112.715Z" fill="#3F3D56"/>
<path d="M203.465 49.7549C204.5 48.8328 205.463 47.8442 206.349 46.7963L189.946 41.9896L208.096 44.55C210.384 41.2458 211.925 37.541 212.625 33.6623C213.325 29.7836 213.17 25.8124 212.169 21.9916L185.974 30.5125L210.832 18.109C209.248 14.4314 206.87 11.0974 203.845 8.31449C200.82 5.53162 197.213 3.35958 193.249 1.93368C189.285 0.507785 185.048 -0.141419 180.804 0.0265166C176.559 0.194452 172.396 1.17593 168.576 2.9098C164.755 4.64367 161.358 7.09279 158.597 10.1046C155.836 13.1164 153.769 16.6263 152.525 20.4157C151.281 24.2052 150.887 28.1929 151.368 32.1305C151.848 36.068 153.193 39.8711 155.318 43.3028C153.711 44.7351 152.274 46.3245 151.031 48.0434L171.212 61.5347L149.079 51.1386C146.751 55.4216 145.605 60.1785 145.743 64.9788C145.882 69.7791 147.302 74.4714 149.875 78.631C145.672 82.3687 142.681 87.134 141.245 92.3823C139.809 97.6305 139.985 103.15 141.753 108.309C143.521 113.468 146.81 118.06 151.244 121.558C155.678 125.056 161.077 127.319 166.825 128.09C172.573 128.86 178.437 128.107 183.748 125.915C189.058 123.723 193.6 120.182 196.854 115.696C200.109 111.21 201.944 105.96 202.151 100.547C202.357 95.1338 200.926 89.7758 198.022 85.0854C203.045 80.6184 206.312 74.7064 207.299 68.2989C208.287 61.8914 206.936 55.3604 203.465 49.7549Z" fill="#B649DE"/>
<path opacity="0.1" d="M146.042 60.0873C145.044 66.4948 146.395 73.0288 149.875 78.631C145.672 82.3687 142.681 87.134 141.245 92.3823C139.809 97.6305 139.985 103.15 141.753 108.309C143.521 113.468 146.81 118.06 151.244 121.558C155.678 125.056 161.077 127.319 166.825 128.09C172.573 128.86 178.437 128.107 183.748 125.915C189.058 123.723 193.6 120.182 196.854 115.696C200.109 111.21 201.944 105.96 202.151 100.547C202.357 95.1338 200.926 89.7758 198.022 85.0854C202.877 80.7726 146.537 56.8806 146.042 60.0873Z" fill="black"/>
</g>
<path opacity="0.1" d="M132 165C204.902 165 264 161.841 264 157.945C264 154.048 204.902 150.89 132 150.89C59.0984 150.89 0 154.048 0 157.945C0 161.841 59.0984 165 132 165Z" fill="#B649DE"/>
<path d="M218.3 155.102C221.709 155.102 224.473 154.606 224.473 153.994C224.473 153.382 221.709 152.886 218.3 152.886C214.891 152.886 212.127 153.382 212.127 153.994C212.127 154.606 214.891 155.102 218.3 155.102Z" fill="#B649DE"/>
<path d="M218.198 154.404C218.595 154.404 218.917 154.01 218.917 153.525C218.917 153.04 218.595 152.647 218.198 152.647C217.8 152.647 217.478 153.04 217.478 153.525C217.478 154.01 217.8 154.404 218.198 154.404Z" fill="#3F3D56"/>
<path d="M218.198 153.329C218.595 153.329 218.917 152.936 218.917 152.451C218.917 151.966 218.595 151.572 218.198 151.572C217.8 151.572 217.478 151.966 217.478 152.451C217.478 152.936 217.8 153.329 218.198 153.329Z" fill="#3F3D56"/>
<path d="M218.198 152.257C218.595 152.257 218.917 151.864 218.917 151.379C218.917 150.894 218.595 150.5 218.198 150.5C217.8 150.5 217.478 150.894 217.478 151.379C217.478 151.864 217.8 152.257 218.198 152.257Z" fill="#3F3D56"/>
<path d="M218.198 151.186C218.595 151.186 218.917 150.792 218.917 150.307C218.917 149.822 218.595 149.429 218.198 149.429C217.8 149.429 217.478 149.822 217.478 150.307C217.478 150.792 217.8 151.186 218.198 151.186Z" fill="#3F3D56"/>
<path d="M218.198 150.111C218.595 150.111 218.917 149.718 218.917 149.233C218.917 148.748 218.595 148.354 218.198 148.354C217.8 148.354 217.478 148.748 217.478 149.233C217.478 149.718 217.8 150.111 218.198 150.111Z" fill="#3F3D56"/>
<path d="M218.198 149.039C218.595 149.039 218.917 148.646 218.917 148.161C218.917 147.676 218.595 147.282 218.198 147.282C217.8 147.282 217.478 147.676 217.478 148.161C217.478 148.646 217.8 149.039 218.198 149.039Z" fill="#3F3D56"/>
<path d="M218.198 147.967C218.595 147.967 218.917 147.574 218.917 147.089C218.917 146.604 218.595 146.21 218.198 146.21C217.8 146.21 217.478 146.604 217.478 147.089C217.478 147.574 217.8 147.967 218.198 147.967Z" fill="#3F3D56"/>
<path d="M220.886 139.749C220.985 139.633 221.075 139.509 221.155 139.381L219.266 139.092L221.309 139.105C221.504 138.708 221.611 138.277 221.622 137.839C221.634 137.402 221.549 136.967 221.374 136.561L218.634 137.888L221.162 136.153C220.926 135.77 220.608 135.435 220.227 135.172C219.847 134.908 219.412 134.72 218.95 134.621C218.488 134.521 218.008 134.511 217.542 134.592C217.076 134.673 216.633 134.843 216.24 135.091C215.848 135.34 215.514 135.661 215.261 136.035C215.008 136.409 214.84 136.827 214.768 137.265C214.696 137.702 214.722 138.148 214.843 138.576C214.965 139.003 215.18 139.403 215.475 139.749C215.322 139.931 215.19 140.127 215.082 140.334L217.522 141.522L214.909 140.703C214.726 141.21 214.681 141.752 214.78 142.279C214.879 142.806 215.118 143.302 215.475 143.721C215.075 144.194 214.827 144.763 214.758 145.362C214.688 145.962 214.801 146.567 215.084 147.109C215.366 147.651 215.806 148.108 216.354 148.428C216.901 148.748 217.534 148.917 218.181 148.917C218.827 148.917 219.46 148.748 220.007 148.428C220.555 148.108 220.995 147.651 221.277 147.109C221.56 146.567 221.673 145.962 221.604 145.362C221.534 144.763 221.286 144.194 220.886 143.721C221.364 143.155 221.623 142.456 221.623 141.736C221.623 141.016 221.364 140.317 220.886 139.752V139.749Z" fill="#B649DE"/>
<path opacity="0.1" d="M214.738 141.734C214.736 142.453 214.993 143.153 215.47 143.718C215.07 144.192 214.822 144.761 214.753 145.36C214.684 145.959 214.797 146.565 215.079 147.107C215.361 147.649 215.801 148.106 216.349 148.426C216.897 148.745 217.53 148.915 218.176 148.915C218.822 148.915 219.455 148.745 220.003 148.426C220.55 148.106 220.99 147.649 221.273 147.107C221.555 146.565 221.668 145.959 221.599 145.36C221.53 144.761 221.281 144.192 220.882 143.718C221.348 143.172 214.738 141.374 214.738 141.734Z" fill="black"/>
<path d="M76.5405 164.017C81.0952 164.017 84.7875 163.355 84.7875 162.538C84.7875 161.721 81.0952 161.058 76.5405 161.058C71.9859 161.058 68.2936 161.721 68.2936 162.538C68.2936 163.355 71.9859 164.017 76.5405 164.017Z" fill="#B649DE"/>
<path d="M76.4014 163.081C76.9323 163.081 77.3627 162.557 77.3627 161.909C77.3627 161.262 76.9323 160.737 76.4014 160.737C75.8705 160.737 75.4401 161.262 75.4401 161.909C75.4401 162.557 75.8705 163.081 76.4014 163.081Z" fill="#3F3D56"/>
<path d="M76.4014 161.648C76.9323 161.648 77.3627 161.123 77.3627 160.476C77.3627 159.828 76.9323 159.304 76.4014 159.304C75.8705 159.304 75.4401 159.828 75.4401 160.476C75.4401 161.123 75.8705 161.648 76.4014 161.648Z" fill="#3F3D56"/>
<path d="M76.4014 160.214C76.9323 160.214 77.3627 159.689 77.3627 159.042C77.3627 158.394 76.9323 157.87 76.4014 157.87C75.8705 157.87 75.4401 158.394 75.4401 159.042C75.4401 159.689 75.8705 160.214 76.4014 160.214Z" fill="#3F3D56"/>
<path d="M76.4014 158.782C76.9323 158.782 77.3627 158.258 77.3627 157.61C77.3627 156.963 76.9323 156.438 76.4014 156.438C75.8705 156.438 75.4401 156.963 75.4401 157.61C75.4401 158.258 75.8705 158.782 76.4014 158.782Z" fill="#3F3D56"/>
<path d="M76.4014 157.349C76.9323 157.349 77.3627 156.824 77.3627 156.176C77.3627 155.529 76.9323 155.004 76.4014 155.004C75.8705 155.004 75.4401 155.529 75.4401 156.176C75.4401 156.824 75.8705 157.349 76.4014 157.349Z" fill="#3F3D56"/>
<path d="M76.4014 155.915C76.9323 155.915 77.3627 155.39 77.3627 154.743C77.3627 154.095 76.9323 153.571 76.4014 153.571C75.8705 153.571 75.4401 154.095 75.4401 154.743C75.4401 155.39 75.8705 155.915 76.4014 155.915Z" fill="#3F3D56"/>
<path d="M76.4014 154.483C76.9323 154.483 77.3627 153.958 77.3627 153.311C77.3627 152.664 76.9323 152.139 76.4014 152.139C75.8705 152.139 75.4401 152.664 75.4401 153.311C75.4401 153.958 75.8705 154.483 76.4014 154.483Z" fill="#3F3D56"/>
<path d="M79.9978 143.504C80.1279 143.348 80.2469 143.184 80.354 143.013L77.8336 142.626L80.5614 142.646C80.8239 142.115 80.9671 141.54 80.9823 140.955C80.9974 140.37 80.884 139.789 80.6493 139.246L76.9894 141.017L80.3638 138.714C80.0462 138.206 79.6202 137.765 79.1122 137.418C78.6043 137.07 78.0252 136.824 77.4109 136.693C76.7966 136.563 76.1602 136.552 75.5412 136.661C74.9221 136.77 74.3336 136.996 73.8121 137.325C73.2906 137.655 72.8472 138.081 72.5095 138.577C72.1718 139.073 71.9469 139.628 71.8488 140.209C71.7507 140.789 71.7815 141.382 71.9393 141.951C72.097 142.52 72.3784 143.053 72.7659 143.516C72.562 143.759 72.3862 144.021 72.2413 144.299L75.5181 145.892L72.0241 144.799C71.7783 145.475 71.7165 146.197 71.8443 146.9C71.9721 147.603 72.2854 148.266 72.7561 148.828C72.2228 149.461 71.8912 150.221 71.7991 151.021C71.707 151.821 71.8582 152.63 72.2354 153.354C72.6125 154.078 73.2005 154.688 73.932 155.115C74.6635 155.542 75.5091 155.769 76.3721 155.769C77.2351 155.769 78.0807 155.542 78.8122 155.115C79.5437 154.688 80.1316 154.078 80.5088 153.354C80.886 152.63 81.0372 151.821 80.9451 151.021C80.853 150.221 80.5213 149.461 79.9881 148.828C80.625 148.071 80.9712 147.137 80.9712 146.175C80.9712 145.213 80.625 144.279 79.9881 143.523L79.9978 143.504Z" fill="#B649DE"/>
<path opacity="0.1" d="M71.7826 146.156C71.7795 147.118 72.1233 148.052 72.7586 148.81C72.2253 149.442 71.8936 150.202 71.8015 151.003C71.7094 151.803 71.8606 152.612 72.2378 153.336C72.615 154.06 73.2029 154.67 73.9344 155.097C74.666 155.524 75.5115 155.751 76.3745 155.751C77.2375 155.751 78.0831 155.524 78.8146 155.097C79.5461 154.67 80.1341 154.06 80.5113 153.336C80.8884 152.612 81.0396 151.803 80.9475 151.003C80.8554 150.202 80.5238 149.442 79.9905 148.81C80.6127 148.079 71.7826 145.676 71.7826 146.156Z" fill="black"/>
<path d="M119.961 97.391C119.339 94.355 118.644 91.3121 118.529 88.2238C118.461 86.4031 118.598 84.5506 118.346 82.7344C118.222 81.8423 118.005 80.9661 117.79 80.0899L116.926 76.5828C117.024 75.9105 116.996 75.2274 116.843 74.5641C116.757 74.2143 116.642 73.8711 116.499 73.5377C117.305 72.4792 117.97 71.3328 118.478 70.1239C118.707 69.5777 118.905 68.9973 118.815 68.4192C118.639 67.3109 117.487 66.5803 116.416 66.0341C115.767 65.7041 115.084 65.3855 114.342 65.3332C113.824 65.3137 113.307 65.4062 112.833 65.6036C112.359 65.801 111.94 66.0979 111.61 66.4711C111.429 65.5739 111.49 64.649 111.785 63.7788C111.148 63.5125 110.507 63.2621 109.86 63.0186C109.767 62.2321 109.734 61.4403 109.763 60.6495C109.777 59.7004 109.794 58.7423 109.853 57.791C111.588 57.2003 113.088 56.1286 114.151 54.7198C115.215 53.311 115.79 51.6325 115.801 49.9097C115.801 49.8118 115.801 49.7162 115.801 49.6206C116.274 48.8277 116.573 47.955 116.681 47.0532C116.79 46.1515 116.704 45.2387 116.431 44.3679C115.716 42.0921 113.847 40.2168 111.595 39.0583C109.343 37.8999 106.732 37.4106 104.148 37.3241C103.281 37.2768 102.411 37.328 101.557 37.4766C100.643 37.6864 99.7575 37.9918 98.9171 38.387C97.6264 38.9423 96.3259 39.5499 95.3597 40.5081C93.6834 42.1763 93.3077 44.6274 93.4907 46.8805C93.7347 49.8391 94.7936 52.7021 96.0184 55.4559C96.4259 56.3663 96.8602 57.2903 97.5312 58.0664C98.0509 58.6649 98.9537 58.7013 99.671 58.2826C99.6141 59.0095 99.5961 59.7387 99.6173 60.4674C98.2924 60.4241 97.0017 60.6267 95.9379 61.3231C95.4499 61.6486 94.9863 62.1606 95.0937 62.7114C95.4196 62.7195 95.732 62.8346 95.9757 63.0366C96.2194 63.2385 96.3789 63.5143 96.4259 63.8152C96.4796 64.2999 96.2185 64.7619 95.9648 65.1807C95.855 65.3673 95.7452 65.5562 95.6329 65.7428C94.5838 66.7897 93.5078 68.1006 93.4126 69.4001C93.2414 69.4153 93.0712 69.4388 92.9027 69.4707C91.9511 69.6346 91.0044 69.9372 90.0699 70.1648L83.3064 71.8262L81.6351 72.2586L78.9512 72.9186C77.2432 73.3374 75.5035 73.7675 73.9883 74.6096C72.4731 75.4517 71.1873 76.7739 70.8823 78.367C70.731 79.159 70.8238 79.9829 70.6383 80.7681C70.6383 80.8045 70.6237 80.8386 70.6139 80.8728C70.4589 81.3698 70.2505 81.8509 69.9917 82.3088C68.4765 85.2879 67.3981 88.5356 67.6006 91.8151C67.7251 93.8292 68.3326 95.7933 68.9231 97.7323C69.5428 99.7154 70.1544 101.698 70.7579 103.681C71.1558 105.101 71.6605 106.493 72.2682 107.846C73.3092 110.014 74.8535 111.94 76.7894 113.484C77.3326 113.938 77.9401 114.321 78.5949 114.622C79.5933 115.024 80.6832 115.189 81.7668 115.102C82.0596 115.084 82.3475 115.054 82.633 115.011C84.7289 114.701 86.6833 113.759 88.4766 112.698C89.2265 112.255 89.9585 111.789 90.6726 111.299C90.7633 112.063 90.9266 112.819 91.1605 113.556C91.3191 114.064 91.5143 114.585 91.4509 115.111C91.3631 115.844 90.7921 116.444 90.4969 117.132C89.8698 118.584 90.514 120.202 90.6189 121.759C90.7189 123.217 90.3383 124.665 90.0333 126.101C89.524 128.496 89.2229 130.925 89.133 133.366C89.1302 134.289 89.065 135.212 88.9378 136.128C88.7109 137.421 88.179 138.668 88.0862 139.975C87.9447 142.009 88.8865 144.001 88.8011 146.038C88.7011 148.429 87.1957 150.753 87.7202 153.093C87.7861 153.386 87.9642 153.725 88.2522 153.8L88.1106 153.921C87.6788 154.294 87.2591 154.984 87.7495 155.287C87.8624 155.349 87.9878 155.389 88.118 155.405C88.8768 155.553 89.6405 155.687 90.4042 155.812C90.3874 156.47 90.4762 157.127 90.6677 157.76C90.8068 157.854 90.9483 157.938 91.0898 158.018C90.9824 158.286 90.9897 158.546 91.2435 158.7C91.3563 158.763 91.4817 158.803 91.6119 158.819C97.8971 160.028 104.316 160.525 110.729 160.298C111.876 160.257 113.074 160.18 114.052 159.634C115.03 159.087 115.692 157.924 115.226 156.966C114.813 156.12 113.735 155.753 112.766 155.471L111.629 155.143C111.775 154.902 111.86 154.634 111.877 154.358C111.895 154.082 111.845 153.806 111.732 153.55C111.319 152.704 110.241 152.337 109.272 152.055L106.654 151.297C106.31 151.221 105.986 151.079 105.703 150.881C105.515 150.707 105.342 150.519 105.185 150.321C104.807 149.918 104.311 149.627 103.758 149.485C103.728 148.968 103.741 148.449 103.794 147.933L104.526 139.692C104.69 137.826 104.851 135.924 104.385 134.101C104.197 133.361 103.897 132.603 104.08 131.861C104.365 130.65 105.732 129.977 106.664 129.078C108.069 127.712 108.506 125.771 108.828 123.923C110.162 116.297 110.581 108.556 110.077 100.843C113.006 100.073 116.021 99.6212 119.061 99.4961C119.578 99.4757 119.832 99.2481 119.993 98.7974C120.154 98.3468 120.057 97.8575 119.961 97.391ZM105.358 97.7938C105.376 97.7141 105.395 97.6345 105.41 97.5548L105.612 97.7961L105.358 97.7938Z" fill="url(#paint0_linear_302_374)"/>
<path d="M100.601 56.0203C100.537 56.8123 100.237 57.5725 100.127 58.3622C100.003 59.2316 100.113 60.1169 100.052 60.9931C99.9906 61.8693 99.7198 62.791 99.0049 63.3623C103.16 63.6979 107.253 64.5238 111.185 65.8202C109.997 64.4547 109.965 62.5475 109.994 60.7951C110.033 58.2029 110.082 55.5606 110.99 53.1141C108.283 52.5497 105.479 52.5156 102.757 53.0139C102.167 53.1232 100.379 53.0549 100.113 53.5692C99.9199 53.947 100.645 55.4468 100.601 56.0203Z" fill="#A1616A"/>
<path opacity="0.1" d="M100.601 56.0203C100.537 56.8123 100.237 57.5725 100.127 58.3622C100.003 59.2316 100.113 60.1169 100.052 60.9931C99.9906 61.8693 99.7198 62.791 99.0049 63.3623C103.16 63.6979 107.253 64.5238 111.185 65.8202C109.997 64.4547 109.965 62.5475 109.994 60.7951C110.033 58.2029 110.082 55.5606 110.99 53.1141C108.283 52.5497 105.479 52.5156 102.757 53.0139C102.167 53.1232 100.379 53.0549 100.113 53.5692C99.9199 53.947 100.645 55.4468 100.601 56.0203Z" fill="black"/>
<path d="M105.519 150.332C105.666 150.534 105.829 150.725 106.007 150.903C106.282 151.102 106.599 151.244 106.937 151.32L109.494 152.078C110.443 152.36 111.497 152.724 111.9 153.571C112.354 154.526 111.707 155.689 110.751 156.233C109.794 156.777 108.623 156.857 107.503 156.898C101.233 157.123 94.9562 156.627 88.8157 155.421C88.689 155.404 88.5671 155.364 88.4571 155.303C87.9691 154.995 88.3863 154.308 88.8084 153.937C90.4554 152.48 92.2463 150.953 94.4886 150.617C95.6671 150.437 96.8504 150.51 98.0216 150.248C98.8633 150.059 99.6588 149.734 100.498 149.54C102.062 149.183 104.402 149.055 105.519 150.332Z" fill="#46455B"/>
<path opacity="0.1" d="M105.519 150.332C105.666 150.534 105.829 150.725 106.007 150.903C106.282 151.102 106.599 151.244 106.937 151.32L109.494 152.078C110.443 152.36 111.497 152.724 111.9 153.571C112.354 154.526 111.707 155.689 110.751 156.233C109.794 156.777 108.623 156.857 107.503 156.898C101.233 157.123 94.9562 156.627 88.8157 155.421C88.689 155.404 88.5671 155.364 88.4571 155.303C87.9691 154.995 88.3863 154.308 88.8084 153.937C90.4554 152.48 92.2463 150.953 94.4886 150.617C95.6671 150.437 96.8504 150.51 98.0216 150.248C98.8633 150.059 99.6588 149.734 100.498 149.54C102.062 149.183 104.402 149.055 105.519 150.332Z" fill="black"/>
<path d="M92.6806 98.8566C91.4188 101.962 91.3413 105.379 92.461 108.531C91.6095 108.445 91.241 109.519 91.263 110.32C91.2933 111.435 91.4745 112.543 91.8022 113.616C91.9584 114.125 92.1487 114.644 92.0877 115.168C91.9999 115.901 91.4435 116.501 91.1532 117.186C90.5432 118.636 91.1703 120.252 91.2752 121.806C91.3728 123.265 90.9995 124.71 90.6994 126.144C90.2022 128.537 89.9085 130.962 89.821 133.397C89.8192 134.32 89.7549 135.243 89.6282 136.158C89.4086 137.451 88.8963 138.696 88.7987 140C88.6596 142.03 89.5794 144.021 89.4965 146.056C89.3989 148.443 87.9252 150.764 88.44 153.111C88.5132 153.441 88.7108 153.83 89.0744 153.835C92.7538 153.878 96.1916 152.924 99.832 153.423C100.203 145.566 100.564 137.674 102.223 129.961C103.687 123.095 106.168 116.306 105.937 109.305C105.803 105.302 104.783 101.376 104.163 97.4115C100.273 96.6058 96.2025 97.1181 92.6806 98.8566Z" fill="#BBBDC8"/>
<path opacity="0.1" d="M92.6806 98.8566C91.4188 101.962 91.3413 105.379 92.461 108.531C91.6095 108.445 91.241 109.519 91.263 110.32C91.2933 111.435 91.4745 112.543 91.8022 113.616C91.9584 114.125 92.1487 114.644 92.0877 115.168C91.9999 115.901 91.4435 116.501 91.1532 117.186C90.5432 118.636 91.1703 120.252 91.2752 121.806C91.3728 123.265 90.9995 124.71 90.6994 126.144C90.2022 128.537 89.9085 130.962 89.821 133.397C89.8192 134.32 89.7549 135.243 89.6282 136.158C89.4086 137.451 88.8963 138.696 88.7987 140C88.6596 142.03 89.5794 144.021 89.4965 146.056C89.3989 148.443 87.9252 150.764 88.44 153.111C88.5132 153.441 88.7108 153.83 89.0744 153.835C92.7538 153.878 96.1916 152.924 99.832 153.423C100.203 145.566 100.564 137.674 102.223 129.961C103.687 123.095 106.168 116.306 105.937 109.305C105.803 105.302 104.783 101.376 104.163 97.4115C100.273 96.6058 96.2025 97.1181 92.6806 98.8566Z" fill="black"/>
<path d="M108.935 153.746C109.082 153.948 109.245 154.139 109.423 154.317C109.698 154.516 110.015 154.658 110.353 154.734L112.91 155.491C113.859 155.774 114.913 156.138 115.316 156.984C115.77 157.94 115.123 159.103 114.167 159.647C113.21 160.191 112.039 160.271 110.919 160.312C104.648 160.537 98.3721 160.041 92.2316 158.835C92.1049 158.818 91.983 158.777 91.873 158.716C91.385 158.409 91.8022 157.722 92.2243 157.351C93.8713 155.894 95.6622 154.367 97.9045 154.03C99.0829 153.851 100.266 153.923 101.437 153.662C102.279 153.473 103.075 153.147 103.914 152.954C105.478 152.597 107.818 152.469 108.935 153.746Z" fill="#46455B"/>
<path d="M93.9493 99.0819C93.0075 100.22 92.7294 101.722 92.8563 103.147C92.9831 104.571 93.4979 105.939 94.003 107.289C93.332 107.864 93.4711 108.857 93.559 109.703C93.8786 112.849 92.7074 115.987 92.8782 119.141C92.949 120.468 93.2588 121.777 93.332 123.104C93.4126 124.553 93.2149 126.003 93.0295 127.444C91.845 136.666 91.1934 145.942 91.0775 155.23C91.0775 156.085 91.0629 156.955 91.3215 157.774C93.0954 158.992 95.323 159.156 97.4702 158.7C99.6173 158.245 101.577 157.23 103.502 156.229C104.556 155.72 105.556 155.118 106.488 154.431C106.773 154.243 106.984 153.972 107.088 153.662C107.293 152.751 105.937 152.339 105.158 151.75C104.026 150.892 104.043 149.303 104.16 147.947L104.868 139.717C105.029 137.854 105.185 135.953 104.731 134.132C104.546 133.395 104.26 132.637 104.431 131.895C104.709 130.689 106.046 130.015 106.957 129.116C108.333 127.751 108.757 125.814 109.074 123.971C110.569 115.225 110.887 106.34 110.021 97.5207C108.228 98.101 106.103 97.7847 104.212 97.9212C102.321 98.0578 100.442 98.6472 98.5266 98.695C96.9309 98.7292 94.9302 97.9076 93.9493 99.0819Z" fill="#BBBDC8"/>
<path d="M106.869 58.4897C111.855 58.4897 115.897 54.7196 115.897 50.069C115.897 45.4183 111.855 41.6483 106.869 41.6483C101.883 41.6483 97.8411 45.4183 97.8411 50.069C97.8411 54.7196 101.883 58.4897 106.869 58.4897Z" fill="#A1616A"/>
<path d="M111.971 63.9199C109.078 62.6805 106.061 61.7094 102.965 61.0204C100.784 60.5357 98.2924 60.2443 96.4698 61.4619C95.9818 61.7874 95.5402 62.2994 95.6451 62.8502C95.9667 62.8601 96.274 62.9763 96.5123 63.1781C96.7505 63.3799 96.9041 63.6541 96.9455 63.9517C96.9992 64.4342 96.7455 64.8962 96.4966 65.3172L94.3909 68.9586C93.9875 69.6146 93.6407 70.2995 93.354 71.0069C92.9294 72.163 92.8367 73.4011 92.7464 74.621L92.5024 77.9255C92.3512 80.0079 92.1975 82.0994 92.4 84.1773C92.5512 85.7454 92.9026 87.3203 92.6635 88.8792C92.4707 90.1332 91.9022 91.3099 91.5826 92.5434C90.9824 94.8648 91.2556 97.4092 90.0918 99.5394C90.5645 99.3359 91.098 99.2908 91.6021 99.4119C95.1351 100.02 97.9142 102.621 101.345 103.615C102.211 102.437 103.385 101.567 104.353 100.47C105.074 99.6479 105.551 98.6639 105.737 97.6163C106.469 98.5266 107.091 99.2367 107.528 100.293C107.605 100.538 107.738 100.766 107.918 100.96C108.379 101.378 109.138 101.217 109.755 101.041C112.782 100.19 115.91 99.6953 119.068 99.569C119.576 99.5485 119.822 99.3209 119.981 98.8703C120.139 98.4197 120.052 97.9326 119.956 97.4683C119.349 94.4346 118.671 91.3963 118.558 88.3126C118.49 86.4919 118.624 84.6461 118.378 82.83C118.256 81.9401 118.044 81.0639 117.834 80.19L116.092 72.9687C115.994 72.5659 115.53 72.3019 115.333 71.9309C114.533 70.4197 113.003 69.3273 112.212 67.8116C111.615 66.5876 111.529 65.1999 111.971 63.9199Z" fill="#46455B"/>
<path d="M99.3049 53.4395C99.2944 53.3216 99.3243 53.2037 99.3903 53.1027C99.4869 53.0081 99.6079 52.9384 99.7417 52.9001C100.105 52.739 100.403 52.4716 100.589 52.1386C100.776 51.8055 100.84 51.4249 100.774 51.0544L101.628 50.8883L101.655 48.114C102.923 47.4586 104.653 47.9547 105.846 47.1832C106.517 46.7462 106.861 46.0043 107.271 45.3443C107.681 44.6843 108.291 44.0197 109.106 43.9651C108.826 44.63 108.706 45.3443 108.754 46.0573C108.803 46.7703 109.019 47.4647 109.387 48.0912C110.241 47.6879 110.955 47.0658 111.444 46.2979L111.868 48.5737C111.877 48.714 111.941 48.8463 112.049 48.9447C112.271 49.0972 112.571 48.906 112.766 48.7171L113.871 47.7043C114.336 48.793 114.655 49.9313 114.82 51.0931C116.636 49.4499 117.199 46.8099 116.502 44.5432C115.804 42.2764 113.976 40.3988 111.775 39.2404C109.575 38.082 107.022 37.595 104.497 37.5085C103.649 37.4622 102.799 37.5134 101.964 37.661C101.069 37.871 100.203 38.1765 99.383 38.5713C98.1216 39.1243 96.8479 39.732 95.9061 40.6879C94.2665 42.3538 93.8981 44.8026 94.0786 47.0603C94.3226 50.0189 95.3523 52.8751 96.5503 55.6243C96.948 56.5347 97.3725 57.4564 98.0289 58.2325C99.017 59.4 101.445 58.4305 101.135 56.1228C100.92 54.475 99.3049 55.11 99.3049 53.4395Z" fill="#3F3D56"/>
<path d="M102.721 98.5221C99.676 104.325 95.0001 109.249 89.1915 112.769C87.4372 113.827 85.5316 114.769 83.4796 115.079C83.1991 115.122 82.9185 115.152 82.633 115.17C81.5748 115.252 80.5116 115.083 79.5416 114.681C78.8994 114.379 78.305 113.996 77.7751 113.543C75.8764 111.993 74.3676 110.071 73.3564 107.915C72.762 106.561 72.2688 105.171 71.8802 103.754C71.2816 101.773 70.6847 99.7905 70.0893 97.8074C69.5062 95.8684 68.9182 93.9066 68.7962 91.8902C68.5985 88.6152 69.6526 85.3721 71.1336 82.3976C71.3862 81.9395 71.5897 81.4592 71.7412 80.9638C71.7412 80.9297 71.7582 80.8955 71.7656 80.8591C71.9412 80.0739 71.851 79.2523 72.0096 78.4603C72.3072 76.8672 73.5662 75.5472 75.0448 74.7074C76.5234 73.8677 78.2167 73.4375 79.8978 73.0188L82.5159 72.361L84.1409 71.9537L90.7506 70.2945C91.6656 70.067 92.5903 69.7643 93.5199 69.6118C94.5569 69.4297 94.5496 69.5253 94.6301 70.4721C94.7789 72.1881 94.7301 73.8745 95.1181 75.5746C95.4865 77.1972 96.1355 78.7608 96.6235 80.3539C97.8557 84.3753 98.0606 88.6084 99.0317 92.6936C99.2538 93.6244 99.5612 94.6167 100.364 95.197C101.284 95.8798 102.833 96.0482 103.077 97.1179C103.167 97.5935 102.94 98.0806 102.721 98.5221Z" fill="#B649DE"/>
<path opacity="0.1" d="M83.4796 115.07C83.1991 115.113 82.9185 115.143 82.633 115.161C81.5756 115.245 80.5125 115.08 79.5416 114.681C78.8994 114.379 78.305 113.996 77.7751 113.543C75.8764 111.993 74.3676 110.071 73.3564 107.915C72.762 106.561 72.2688 105.171 71.8802 103.754C71.2816 101.773 70.6847 99.7905 70.0893 97.8075C69.5062 95.8684 68.9182 93.9066 68.7962 91.8902C68.5985 88.6152 69.6526 85.3721 71.1336 82.3976C71.3862 81.9395 71.5897 81.4592 71.7412 80.9638C71.7412 80.9297 71.7582 80.8955 71.7656 80.8591C75.7475 81.5123 80.5249 88.6175 82.9892 97.9281C84.8045 104.89 84.8826 111.301 83.4796 115.07Z" fill="black"/>
<path opacity="0.1" d="M90.6774 90.5725L90.0113 90.6794C89.3257 88.9999 88.6425 87.318 87.8398 85.6839C87.4225 84.8305 86.9712 83.9884 86.6198 83.1077C85.3023 79.7257 85.5267 75.7134 83.0844 72.9277C82.91 72.7208 82.7111 72.533 82.4915 72.3679L84.1164 71.9605C85.5394 74.0591 86.543 76.3808 87.0785 78.8131C87.342 80.0011 87.4909 81.2164 87.9203 82.3589C88.2856 83.2255 88.7035 84.072 89.172 84.8942C90.0991 86.6671 90.797 88.6039 90.6774 90.5725Z" fill="black"/>
<path d="M97.1627 64.9303C98.917 63.5284 101.311 62.7592 103.582 63.1097C104.919 63.3122 106.161 63.8743 107.359 64.4752C109.694 65.6313 111.995 66.9627 113.679 68.863C114.688 70.0616 115.526 71.3774 116.172 72.7775C116.489 73.3892 116.734 74.0309 116.904 74.6915C117.499 77.2632 116.038 79.819 114.63 82.0994L111.922 86.4828C110.677 88.4969 109.423 90.5247 107.803 92.293C107.057 93.1078 106.237 93.8611 105.419 94.6144L101.83 97.919C101.766 97.99 101.681 98.0428 101.586 98.0714C101.508 98.0753 101.43 98.0633 101.357 98.0362C101.284 98.0091 101.218 97.9675 101.164 97.9144L99.9784 97.0336C101.071 96.3298 102.086 95.5271 103.009 94.6372C104.561 93.1397 105.837 91.4168 107.105 89.7008L111.053 84.3617C112.207 82.7981 113.413 81.0776 113.283 79.1841C113.222 78.2737 112.856 77.418 112.473 76.5828C111.795 75.0974 111.058 73.6355 110.263 72.1972C109.37 70.5836 108.394 68.9905 107.108 67.6272C105.822 66.264 104.197 65.1238 102.326 64.6299C101.767 64.4598 101.176 64.407 100.593 64.4752C99.3098 64.6732 98.3973 65.7019 97.5848 66.6577L95.1107 69.6163C94.5471 70.2877 94.0298 71.0661 93.9957 69.7916C93.9371 67.9732 95.9086 66.1001 97.1627 64.9303Z" fill="#B649DE"/>
<path d="M97.9288 84.8897C98.4168 86.6421 99.1366 88.6312 100.945 89.2957C102.226 89.7668 103.726 89.3845 104.834 88.613C105.942 87.8414 106.727 86.7536 107.449 85.6543C108.061 84.6665 108.735 83.7135 109.467 82.8004C110.914 81.1072 112.883 79.7644 113.859 77.7935C114.147 77.2063 114.347 76.5782 114.674 76.0138C115.023 75.4934 115.418 75.0009 115.855 74.5413C116.978 73.2431 117.877 71.7886 118.517 70.2308C118.741 69.6869 118.934 69.1043 118.846 68.5285C118.673 67.4201 117.548 66.6919 116.502 66.1479C115.865 65.8179 115.199 65.497 114.474 65.447C113.415 65.3696 112.373 65.9021 111.722 66.6828C111.095 67.4902 110.744 68.4558 110.716 69.4525C110.643 70.6655 110.897 71.9263 110.472 73.0734C110.248 73.6085 109.938 74.1088 109.553 74.5572C108.182 76.2676 106.486 77.728 104.548 78.8654C104.495 78.0046 104.295 77.1572 103.955 76.3552C103.77 75.9137 100.135 76.3552 99.6612 76.428C98.7242 76.5554 96.9089 76.6556 96.3185 77.4886C95.728 78.3215 96.46 79.7212 96.6991 80.561L97.9288 84.8897Z" fill="#A1616A"/>
<path d="M97.841 65.7656C97.3009 66.1818 96.7983 66.6385 96.338 67.1311C95.2547 68.3487 94.7252 69.9327 94.5886 71.5099C94.452 73.087 94.6837 74.671 94.9741 76.23C95.2376 77.6289 95.5491 79.0179 95.9086 80.3971C96.0086 79.357 96.9114 78.4968 97.9581 78.1212C99.0049 77.7457 100.154 77.7867 101.269 77.9392C102.704 78.1375 104.104 78.5148 105.432 79.0612L105.946 72.3315C106.055 71.4236 106.049 70.507 105.929 69.6004C105.767 68.7591 105.415 67.9597 104.896 67.2553C104.377 66.5509 103.703 65.9577 102.918 65.5152C100.962 64.4046 99.5978 64.3341 97.841 65.7656Z" fill="#46455B"/>
<path d="M190.017 98.513C189.785 96.6867 189.215 94.9117 188.333 93.2671C187.794 92.2657 187.137 91.3076 186.798 90.2357C186.523 89.364 186.469 88.4468 186.249 87.5615C186.03 86.6762 185.642 85.8296 185.329 84.9648C183.121 78.8199 184.78 72.097 184.068 65.6563C183.802 63.2803 183.021 60.6745 180.813 59.4364C179.5 58.7013 177.924 58.5875 176.38 58.5261L175.675 58.4965L174.543 58.4441C172.903 58.369 171.258 58.3121 169.663 58.633C167.711 59.0313 165.398 60.3126 164.783 62.172C164.446 62.0104 164.107 61.867 163.795 61.7328C162.538 61.2127 161.22 60.8308 159.869 60.5948C161.028 60.3224 162.147 59.9189 163.202 59.3932C165.642 58.0686 166.208 54.1997 166.706 51.612C167.203 49.0243 166.749 46.3502 165.922 43.8354C165.649 42.943 165.277 42.0796 164.812 41.2591C164.17 40.1784 163.296 39.2328 162.244 38.4814C161.192 37.73 159.986 37.189 158.7 36.8921C157.414 36.5953 156.076 36.5489 154.77 36.756C153.464 36.9631 152.218 37.4191 151.11 38.0957C148.833 39.4862 146.718 41.5094 144.98 43.4644C144.736 43.733 143.717 44.6843 144.056 45.0848C144.246 45.3124 144.873 45.1303 145.532 44.8572C145.025 45.9252 144.764 47.0804 144.766 48.2483C144.767 49.7151 145.178 51.1564 145.958 52.4302C146.738 53.7039 147.86 54.7664 149.214 55.5128L149.458 57.6066V57.6226C149.485 58.3212 149.497 59.0199 149.506 59.7163C149.506 60.2057 149.506 60.7063 149.492 61.207C148.479 62.2755 147.24 63.1359 145.851 63.7332C146.998 63.9108 148.091 63.6604 149.155 63.2325C148.982 63.7916 148.692 64.313 148.301 64.7665C148.594 64.6709 148.887 64.5844 149.18 64.4934C149.026 64.7227 148.89 64.9615 148.772 65.208C148.592 65.5977 148.46 66.0055 148.379 66.4233C147.758 67.2701 147.22 68.1674 146.771 69.1043C146.566 69.5299 146.383 69.9623 146.217 70.4015V70.4311C146.055 70.8681 145.911 71.3111 145.786 71.7602C145.727 71.9757 145.673 72.1919 145.625 72.4088C145.625 72.4248 145.625 72.4407 145.625 72.4566C145.527 72.8959 145.446 73.3374 145.381 73.7835C145.381 73.813 145.381 73.8426 145.381 73.8745C145.354 74.0816 145.329 74.291 145.312 74.5003C145.312 74.5003 145.312 74.5208 145.312 74.5322C145.293 74.7598 145.278 74.976 145.271 75.199C145.271 75.2286 145.271 75.2559 145.271 75.2855C145.271 75.4744 145.271 75.6656 145.271 75.8545V75.9842C145.271 76.4121 145.3 76.8422 145.344 77.2723C145.344 77.3247 145.344 77.3793 145.361 77.4317C145.381 77.6069 145.403 77.7821 145.429 77.9597C145.429 78.0006 145.429 78.0416 145.446 78.0803C145.478 78.2919 145.515 78.5013 145.556 78.7107C145.556 78.7562 145.578 78.804 145.588 78.8495C145.622 79.0179 145.659 79.1841 145.7 79.3525L145.744 79.5254C145.798 79.7348 145.854 79.9419 145.917 80.1513C145.954 80.2697 145.991 80.3789 146.03 80.5041C146.146 80.9355 146.228 81.3744 146.274 81.8172L144.939 81.8582C142.083 81.9341 139.229 82.0547 136.377 82.2201C136.021 80.9388 134.806 80.1991 133.276 80.0239C133.033 79.9966 132.789 79.9829 132.544 79.9829C132.808 79.7756 133.042 79.5377 133.242 79.2751C133.507 78.9345 133.697 78.5475 133.798 78.1372C133.405 78.3459 133.061 78.627 132.788 78.9633C132.698 79.0771 132.617 79.1909 132.544 79.2956V78.6128C132.544 78.5984 132.542 78.5841 132.536 78.5707C132.53 78.5573 132.521 78.5451 132.511 78.5349C132.5 78.5247 132.487 78.5166 132.472 78.5113C132.458 78.5059 132.442 78.5033 132.427 78.5036H132.183C132.168 78.5033 132.152 78.5059 132.138 78.5113C132.123 78.5166 132.11 78.5247 132.099 78.5349C132.088 78.5451 132.08 78.5573 132.074 78.5707C132.068 78.5841 132.066 78.5984 132.066 78.6128V80.0034H132.017H131.934C131.773 80.017 131.617 80.0352 131.463 80.0626C129.802 80.3516 128.584 81.3461 128.584 83.0212C128.585 83.5486 128.708 84.0697 128.945 84.5483C129.183 85.0269 129.529 85.4517 129.96 85.7932C130.032 86.3149 130.158 86.8287 130.338 87.3271C130.507 87.821 130.726 88.3581 131.219 88.6039C131.52 88.7313 131.851 88.7876 132.181 88.7677C134.894 88.7677 137.461 87.6002 140.162 87.4022C141.83 87.277 143.507 87.5183 145.18 87.4705C145.424 87.4705 145.668 87.4477 145.912 87.4295C143.624 98.0009 140.854 108.707 142.301 119.385C142.397 120.095 142.545 120.864 143.114 121.347C143.868 121.988 145.029 121.884 146.042 121.802C148.82 121.565 151.622 121.774 154.325 122.419C154.705 122.517 155.105 122.53 155.492 122.457C155.574 122.44 155.656 122.418 155.736 122.391L155.804 122.366C155.855 122.348 155.904 122.33 155.95 122.309L156.021 122.275L156.141 122.207C156.16 122.193 156.182 122.182 156.199 122.168C156.242 122.141 156.282 122.111 156.319 122.077L156.353 122.05C156.399 122.008 156.442 121.964 156.482 121.918L156.512 121.877C156.54 121.843 156.566 121.807 156.59 121.77C156.602 121.752 156.614 121.734 156.624 121.715C156.633 121.697 156.663 121.647 156.68 121.613C156.697 121.579 156.699 121.572 156.707 121.552C156.714 121.531 156.738 121.476 156.753 121.438C156.768 121.399 156.753 121.401 156.773 121.381C156.792 121.36 156.807 121.267 156.819 121.21V121.174C156.819 121.126 156.838 121.076 156.846 121.028C156.853 120.98 156.846 120.978 156.846 120.953C156.846 120.928 156.846 120.878 156.846 120.841V120.76C156.846 120.723 156.846 120.687 156.846 120.65V120.448C156.846 120.425 156.846 120.4 156.846 120.375C156.846 120.172 156.821 119.968 156.799 119.772C156.974 119.819 157.152 119.855 157.331 119.879C157.499 119.904 157.669 119.915 157.839 119.913H157.863C157.944 119.913 158.024 119.913 158.107 119.895C158.178 119.885 158.248 119.871 158.317 119.854H158.349C158.413 119.836 158.475 119.813 158.534 119.785L158.563 119.77C158.614 119.743 158.662 119.713 158.707 119.678L158.729 119.663C158.775 119.623 158.816 119.579 158.851 119.531L158.873 119.496C158.91 119.442 158.938 119.383 158.959 119.321C159.098 118.882 158.781 118.386 159.288 117.983C159.776 119.442 160.264 120.903 160.345 122.412C160.371 122.963 160.345 123.55 160.691 124.005C160.917 124.253 161.161 124.486 161.423 124.701C162.17 125.455 162.187 126.59 162.136 127.61C162.114 128.022 162.089 128.434 162.057 128.846C161.654 134.343 160.456 139.764 158.495 144.961C158.304 145.514 158.054 146.048 157.749 146.554C157.253 147.271 156.634 147.906 155.916 148.434C154.899 149.24 153.809 149.962 152.659 150.594C152.071 150.884 151.516 151.227 151.002 151.62C150.983 151.568 150.961 151.518 150.946 151.463C150.919 151.358 150.883 151.236 150.773 151.197C150.689 151.179 150.602 151.192 150.529 151.233C149.384 151.702 148.24 152.171 147.14 152.719C146.584 152.956 146.095 153.308 145.71 153.75C145.359 154.206 145.254 154.888 145.617 155.344C145.937 155.742 146.51 155.874 147.04 155.963C147.718 156.074 148.399 156.154 149.079 156.213C148.73 156.404 148.424 156.658 148.179 156.959C147.828 157.415 147.723 158.097 148.086 158.552C148.406 158.951 148.979 159.083 149.509 159.172C153.835 159.884 158.271 159.399 162.663 159.278C164.09 159.235 165.549 159.226 166.901 158.794C167.167 158.72 167.416 158.599 167.633 158.436C168.248 157.931 168.187 157.044 168.079 156.29L167.633 153.213C167.567 153.213 167.503 153.234 167.44 153.247C167.814 150.357 168.485 147.507 169.443 144.736C170.931 140.423 173.147 136.174 173.118 131.661C173.118 131.552 173.118 131.433 173.118 131.333C173.076 129.92 172.805 128.522 172.63 127.116C172.354 124.763 172.386 122.389 172.403 120.024C172.381 119.097 172.451 118.17 172.61 117.255C172.61 117.223 172.625 117.193 172.632 117.161L176.685 117.061C177.134 117.082 177.582 117.004 177.993 116.834C178.187 116.754 178.343 116.61 178.43 116.43C178.517 116.25 178.53 116.046 178.466 115.857C180.193 116.588 182.504 115.593 183.014 113.9C183.049 113.781 183.078 113.66 183.099 113.538C183.098 113.529 183.098 113.52 183.099 113.511C183.116 113.397 183.129 113.283 183.134 113.172C183.134 113.154 183.134 113.133 183.134 113.115C183.159 112.333 183.029 111.554 182.75 110.816C181.921 108.625 180.603 106.629 179.364 104.61C178.725 103.565 178.105 102.507 177.502 101.444L178.032 102.079C178.217 102.338 178.461 102.556 178.747 102.719C179.735 103.194 180.769 102.236 181.774 101.795C183.109 101.208 184.671 101.554 186.144 101.651C187.618 101.749 189.394 101.394 189.921 100.12C190.092 99.5992 190.125 99.0478 190.017 98.513ZM164.61 64.309C164.61 64.7961 164.644 65.2899 164.685 65.7861C164.19 65.0311 163.618 64.3223 162.977 63.6695L164.61 64.309Z" fill="url(#paint1_linear_302_374)"/>
<path d="M132.732 79.373C133.002 79.0394 133.342 78.76 133.73 78.5514C133.631 78.9613 133.444 79.3483 133.181 79.6893C132.756 80.2287 132.31 80.5997 132.185 80.5109C132.061 80.4221 132.303 79.9123 132.732 79.373Z" fill="#99D55C"/>
<path opacity="0.1" d="M132.786 79.4139C132.983 79.166 133.232 78.9578 133.518 78.8017C133.443 79.1049 133.305 79.3913 133.11 79.6438C132.793 80.0444 132.461 80.3266 132.378 80.256C132.295 80.1855 132.468 79.8145 132.786 79.4139Z" fill="black"/>
<path d="M132.139 78.9201H132.383C132.398 78.9201 132.414 78.9229 132.428 78.9284C132.442 78.9339 132.455 78.9419 132.466 78.9521C132.477 78.9622 132.485 78.9743 132.491 78.9875C132.497 79.0008 132.5 79.015 132.5 79.0293V81.6079H132.037V79.0293C132.036 79.0026 132.047 78.9767 132.066 78.9565C132.084 78.9364 132.111 78.9234 132.139 78.9201Z" fill="#F6987E"/>
<path d="M136.392 83.4285C136.392 84.3943 135.981 85.3205 135.248 86.0034C134.516 86.6863 133.523 87.0699 132.488 87.0699C131.453 87.0699 130.46 86.6863 129.728 86.0034C128.995 85.3205 128.584 84.3943 128.584 83.4285C128.584 81.7603 129.787 80.7726 131.429 80.4836C131.778 80.4235 132.133 80.3938 132.488 80.3948C132.733 80.3945 132.977 80.4082 133.22 80.4358C135.026 80.6452 136.392 81.6511 136.392 83.4285Z" fill="#FC4A4A"/>
<path opacity="0.1" d="M133.22 80.4358C133.149 80.561 132.766 80.6634 132.303 80.6634C132 80.684 131.697 80.6249 131.429 80.4927C131.778 80.4326 132.133 80.4029 132.488 80.4039C132.732 80.4006 132.977 80.4112 133.22 80.4358Z" fill="black"/>
<path opacity="0.1" d="M133.139 86.9834C132.104 86.9834 131.111 86.5998 130.379 85.9169C129.647 85.234 129.236 84.3078 129.236 83.3421C129.236 81.7034 130.395 80.7225 131.99 80.4153C131.802 80.4287 131.615 80.4515 131.429 80.4836C129.787 80.7726 128.584 81.7603 128.584 83.4285C128.584 84.3943 128.995 85.3205 129.728 86.0034C130.46 86.6863 131.453 87.0699 132.488 87.0699C132.783 87.0704 133.077 87.0391 133.364 86.9766C133.288 86.9812 133.22 86.9834 133.139 86.9834Z" fill="black"/>
<path d="M150.348 154.383C150.887 154.838 151.712 154.827 152.444 154.777L155.779 154.549C158.429 154.367 161.169 154.162 163.507 152.986C163.754 152.88 163.973 152.725 164.148 152.531C164.334 152.233 164.431 151.894 164.429 151.55C164.745 148.179 165.463 144.851 166.571 141.629C168.035 137.339 170.231 133.111 170.202 128.62C170.202 128.511 170.202 128.393 170.202 128.295C170.16 126.888 169.894 125.498 169.731 124.098C169.46 121.756 169.487 119.396 169.507 117.043C169.486 116.12 169.554 115.198 169.711 114.287C169.865 113.547 170.443 112.805 170.09 112.154C169.404 110.891 166.918 110.427 165.581 110.382C163.78 110.322 162.009 110.762 160.269 111.199C159.739 111.333 159.186 111.476 158.785 111.824C158.249 112.293 158.095 113.028 158.075 113.713C157.983 116.752 159.859 119.578 160.008 122.612C160.035 123.158 160.008 123.75 160.349 124.205C160.575 124.453 160.819 124.685 161.081 124.899C161.813 125.648 161.835 126.777 161.784 127.792C161.762 128.202 161.738 128.611 161.709 129.021C161.31 134.488 160.126 139.881 158.188 145.054C158.001 145.607 157.756 146.14 157.456 146.647C156.966 147.359 156.355 147.991 155.645 148.518C154.64 149.319 153.564 150.038 152.427 150.667C151.668 151.085 150.858 151.486 150.338 152.15C149.819 152.815 149.704 153.823 150.348 154.383Z" fill="#FDA8A8"/>
<path opacity="0.1" d="M150.348 154.383C150.887 154.838 151.712 154.827 152.444 154.777L155.779 154.549C158.429 154.367 161.169 154.162 163.507 152.986C163.754 152.88 163.973 152.725 164.148 152.531C164.334 152.233 164.431 151.894 164.429 151.55C164.745 148.179 165.463 144.851 166.571 141.629C168.035 137.339 170.231 133.111 170.202 128.62C170.202 128.511 170.202 128.393 170.202 128.295C170.16 126.888 169.894 125.498 169.731 124.098C169.46 121.756 169.487 119.396 169.507 117.043C169.486 116.12 169.554 115.198 169.711 114.287C169.865 113.547 170.443 112.805 170.09 112.154C169.404 110.891 166.918 110.427 165.581 110.382C163.78 110.322 162.009 110.762 160.269 111.199C159.739 111.333 159.186 111.476 158.785 111.824C158.249 112.293 158.095 113.028 158.075 113.713C157.983 116.752 159.859 119.578 160.008 122.612C160.035 123.158 160.008 123.75 160.349 124.205C160.575 124.453 160.819 124.685 161.081 124.899C161.813 125.648 161.835 126.777 161.784 127.792C161.762 128.202 161.738 128.611 161.709 129.021C161.31 134.488 160.126 139.881 158.188 145.054C158.001 145.607 157.756 146.14 157.456 146.647C156.966 147.359 156.355 147.991 155.645 148.518C154.64 149.319 153.564 150.038 152.427 150.667C151.668 151.085 150.858 151.486 150.338 152.15C149.819 152.815 149.704 153.823 150.348 154.383Z" fill="black"/>
<path d="M150.348 154.383C150.887 154.838 151.712 154.827 152.444 154.777L155.779 154.549C158.429 154.367 161.169 154.162 163.507 152.986C163.754 152.88 163.973 152.725 164.148 152.531C164.334 152.233 164.431 151.894 164.429 151.55C164.745 148.179 165.463 144.851 166.571 141.629C168.035 137.339 170.231 133.111 170.202 128.62C167.382 128.911 164.546 129.042 161.709 129.012C161.31 134.479 160.126 139.872 158.188 145.045C158.001 145.598 157.756 146.131 157.456 146.638C156.966 147.35 156.355 147.982 155.645 148.509C154.64 149.31 153.564 150.028 152.427 150.658C151.668 151.076 150.858 151.477 150.338 152.141C149.819 152.806 149.704 153.823 150.348 154.383Z" fill="#EEEFF3"/>
<path opacity="0.1" d="M150.348 154.383C150.887 154.838 151.712 154.827 152.444 154.777L155.779 154.549C158.429 154.367 161.169 154.162 163.507 152.986C163.754 152.88 163.973 152.725 164.148 152.531C164.334 152.233 164.431 151.894 164.429 151.55C164.745 148.179 165.463 144.851 166.571 141.629C168.035 137.339 170.231 133.111 170.202 128.62C167.382 128.911 164.546 129.042 161.709 129.012C161.31 134.479 160.126 139.872 158.188 145.045C158.001 145.598 157.756 146.131 157.456 146.638C156.966 147.35 156.355 147.982 155.645 148.509C154.64 149.31 153.564 150.028 152.427 150.658C151.668 151.076 150.858 151.477 150.338 152.141C149.819 152.806 149.704 153.823 150.348 154.383Z" fill="black"/>
<path d="M157.717 153.423C158.518 153.155 159.288 152.812 160.015 152.399L163.692 150.464C164.024 150.263 164.395 150.124 164.783 150.052L165.222 153.113C165.332 153.864 165.39 154.747 164.783 155.25C164.566 155.412 164.317 155.532 164.051 155.605C162.716 156.035 161.277 156.044 159.864 156.085C155.526 156.215 151.144 156.689 146.869 155.978C146.347 155.892 145.781 155.751 145.466 155.364C145.107 154.909 145.21 154.249 145.556 153.787C145.936 153.348 146.42 152.996 146.969 152.76C148.057 152.214 149.187 151.75 150.317 151.283C150.386 151.245 150.469 151.232 150.548 151.247C150.658 151.281 150.692 151.406 150.722 151.511C150.919 152.257 151.563 152.847 152.298 153.2C152.308 153.2 156.092 153.905 157.717 153.423Z" fill="#BBBDC8"/>
<path opacity="0.1" d="M157.717 153.423C158.518 153.155 159.288 152.812 160.015 152.399L163.692 150.464C164.024 150.263 164.395 150.124 164.783 150.052L165.222 153.113C165.332 153.864 165.39 154.747 164.783 155.25C164.566 155.412 164.317 155.532 164.051 155.605C162.716 156.035 161.277 156.044 159.864 156.085C155.526 156.215 151.144 156.689 146.869 155.978C146.347 155.892 145.781 155.751 145.466 155.364C145.107 154.909 145.21 154.249 145.556 153.787C145.936 153.348 146.42 152.996 146.969 152.76C148.057 152.214 149.187 151.75 150.317 151.283C150.386 151.245 150.469 151.232 150.548 151.247C150.658 151.281 150.692 151.406 150.722 151.511C150.919 152.257 151.563 152.847 152.298 153.2C152.308 153.2 156.092 153.905 157.717 153.423Z" fill="black"/>
<path d="M152.788 157.569C153.327 158.024 154.152 158.013 154.884 157.963L158.219 157.735C160.869 157.553 163.609 157.349 165.947 156.172C166.194 156.066 166.413 155.911 166.588 155.717C166.774 155.419 166.871 155.08 166.869 154.736C167.185 151.365 167.903 148.037 169.011 144.815C170.475 140.525 172.671 136.297 172.642 131.807C172.642 131.697 172.642 131.579 172.642 131.481C172.6 130.075 172.334 128.684 172.171 127.284C171.9 124.943 171.927 122.582 171.946 120.229C171.926 119.307 171.994 118.384 172.151 117.473C172.305 116.734 172.883 115.992 172.53 115.341C171.844 114.078 169.358 113.613 168.021 113.568C166.22 113.509 164.449 113.948 162.709 114.385C162.179 114.519 161.626 114.662 161.225 115.011C160.689 115.48 160.535 116.215 160.515 116.9C160.423 119.938 162.299 122.765 162.448 125.798C162.475 126.344 162.448 126.936 162.789 127.391C163.015 127.639 163.259 127.871 163.521 128.086C164.253 128.834 164.275 129.963 164.224 130.978C164.202 131.388 164.178 131.797 164.148 132.207C163.75 137.675 162.566 143.067 160.628 148.241C160.441 148.793 160.196 149.327 159.896 149.834C159.406 150.546 158.794 151.178 158.085 151.704C157.08 152.505 156.004 153.224 154.867 153.853C154.108 154.272 153.298 154.672 152.778 155.337C152.259 156.001 152.144 157.009 152.788 157.569Z" fill="#FDA8A8"/>
<path d="M152.788 157.569C153.327 158.024 154.152 158.013 154.884 157.963L158.219 157.735C160.869 157.553 163.609 157.349 165.947 156.172C166.194 156.066 166.413 155.911 166.588 155.717C166.774 155.419 166.871 155.08 166.869 154.736C167.185 151.365 167.903 148.037 169.011 144.815C170.475 140.525 172.671 136.297 172.642 131.807C169.822 132.097 166.985 132.228 164.148 132.198C163.75 137.665 162.566 143.058 160.628 148.231C160.441 148.784 160.196 149.317 159.896 149.825C159.406 150.536 158.794 151.168 158.085 151.695C157.08 152.496 156.004 153.215 154.867 153.844C154.108 154.262 153.298 154.663 152.778 155.328C152.259 155.992 152.144 157.009 152.788 157.569Z" fill="#EEEFF3"/>
<path d="M160.157 156.609C160.958 156.341 161.728 155.998 162.455 155.585L166.132 153.65C166.464 153.45 166.835 153.31 167.223 153.238L167.662 156.299C167.772 157.05 167.83 157.933 167.223 158.436C167.006 158.598 166.757 158.719 166.491 158.791C165.156 159.222 163.717 159.231 162.304 159.272C157.966 159.401 153.584 159.875 149.309 159.165C148.787 159.078 148.221 158.937 147.906 158.55C147.547 158.095 147.65 157.435 147.996 156.973C148.376 156.534 148.859 156.183 149.409 155.947C150.497 155.4 151.627 154.936 152.756 154.47C152.826 154.431 152.909 154.418 152.988 154.433C153.098 154.467 153.132 154.592 153.162 154.697C153.359 155.444 154.003 156.033 154.738 156.386C154.747 156.386 158.532 157.091 160.157 156.609Z" fill="#BBBDC8"/>
<path d="M148.057 65.2512C149.245 63.8857 149.277 61.9786 149.248 60.2261C149.248 59.5434 149.226 58.8379 149.199 58.1437V58.1278C149.166 56.8521 149.022 55.5809 148.767 54.3271C148.639 53.7254 148.468 53.1324 148.255 52.5519C148.416 52.5178 148.577 52.4859 148.743 52.4586C151.3 51.9875 153.932 51.9875 156.49 52.4586C156.931 52.5406 158.049 52.5223 158.685 52.7249C158.867 52.7653 159.025 52.8687 159.127 53.0139C159.252 53.2574 158.995 53.963 158.81 54.5888C158.708 54.8709 158.65 55.1653 158.639 55.4628C158.664 55.7423 158.709 56.0199 158.776 56.2934C158.89 56.7964 159.042 57.2948 159.112 57.8046C159.237 58.674 159.127 59.5593 159.188 60.4355C159.249 61.3117 159.52 62.2334 160.235 62.8047C156.081 63.1369 151.989 63.9589 148.057 65.2512Z" fill="#FDA8A8"/>
<path opacity="0.1" d="M159.749 56.1933C159.425 56.2183 159.103 56.2479 158.773 56.2821C155.523 56.6057 152.316 57.2309 149.199 58.1483V58.1323L148.767 54.3317C148.767 54.1041 148.767 53.8765 148.767 53.6375C148.767 53.2483 148.755 52.8546 148.745 52.4632C151.303 51.9921 153.934 51.9921 156.492 52.4632C156.934 52.5451 158.051 52.5269 158.688 52.7294C158.688 53.1004 158.688 53.4714 158.703 53.8423C158.719 54.0949 158.755 54.346 158.812 54.5934C158.929 55.2078 159.258 55.7697 159.749 56.1933Z" fill="black"/>
<path d="M153.593 57.2379C158.579 57.2379 162.621 53.4679 162.621 48.8172C162.621 44.1666 158.579 40.3966 153.593 40.3966C148.608 40.3966 144.566 44.1666 144.566 48.8172C144.566 53.4679 148.608 57.2379 153.593 57.2379Z" fill="#FDA8A8"/>
<path d="M145.664 80.5678C144.061 75.2764 145.524 69.5936 149.353 65.4151C150.204 64.4843 151.061 63.5284 152.178 62.9708C153.508 62.3108 155.082 62.2881 156.587 62.2744C157.917 62.2744 159.288 62.2744 160.51 62.7683C162.162 63.426 163.302 64.8552 164.263 66.2731C165.288 67.7843 166.215 69.4206 166.371 71.2049C166.454 72.2632 166.254 73.3374 166.422 74.3911C166.637 75.727 167.435 76.9241 167.762 78.2396C167.94 78.9497 167.977 79.6848 168.091 80.4085C168.264 81.3985 168.515 82.3753 168.843 83.3307C171.267 90.8389 174.587 98.0697 178.739 104.888C179.959 106.897 181.265 108.884 182.084 111.062C182.455 112.048 182.724 113.11 182.421 114.125C181.916 115.81 179.635 116.8 177.929 116.074C177.992 116.261 177.979 116.463 177.893 116.642C177.807 116.82 177.653 116.963 177.461 117.043C177.055 117.214 176.612 117.292 176.167 117.271L161.099 117.644C160.703 117.653 160.309 117.703 159.925 117.792C158.154 118.215 158.82 118.93 158.629 119.526C158.398 120.254 157.278 120.195 156.497 119.981C156.616 121.044 156.643 122.344 155.172 122.653C154.79 122.725 154.396 122.713 154.02 122.617C151.35 121.975 148.582 121.767 145.837 122.002C144.832 122.089 143.682 122.193 142.938 121.547C142.377 121.067 142.231 120.302 142.135 119.597C140.635 108.445 143.721 97.2772 146.039 86.2597C146.352 84.7736 146.239 82.3657 145.771 80.9137L145.664 80.5678Z" fill="#F75842"/>
<path d="M165.671 72.8822C166.025 73.8335 166.466 74.7689 166.586 75.7703C166.681 76.5714 166.566 77.3816 166.618 78.185C166.711 79.0769 166.908 79.9568 167.206 80.809C167.675 82.4666 168.255 84.0955 168.94 85.6862C169.267 86.4031 169.646 87.1928 169.382 87.9325C169.119 88.6721 168.301 89.1296 168.067 89.8647C167.823 90.6408 168.311 91.4578 168.933 92.0245C169.555 92.5912 170.334 92.994 170.909 93.5971C171.537 94.2548 171.885 95.0946 172.327 95.873C172.954 96.9024 173.673 97.8807 174.477 98.7974L177.427 102.368C177.61 102.626 177.852 102.843 178.134 103.006C179.11 103.479 180.132 102.525 181.125 102.095C182.443 101.51 183.985 101.854 185.442 101.952C186.898 102.05 188.653 101.697 189.172 100.427C189.344 99.9116 189.38 99.365 189.277 98.8339C189.049 97.0179 188.486 95.2524 187.613 93.6153C187.081 92.6185 186.432 91.6649 186.098 90.5975C185.825 89.7304 185.771 88.8178 185.554 87.937C185.337 87.0563 184.954 86.2142 184.646 85.3539C182.465 79.241 184.105 72.5522 183.399 66.1434C183.138 63.7788 182.365 61.1866 180.184 59.9553C178.888 59.2248 177.331 59.111 175.792 59.045L175.096 59.0154L173.976 58.963C172.356 58.8879 170.731 58.831 169.153 59.1519C166.932 59.6071 164.261 61.2161 164.173 63.5284C164.077 66.7043 164.585 69.871 165.671 72.8822Z" fill="#B649DE"/>
<path opacity="0.1" d="M173.989 58.9539C174.288 60.5026 174.438 62.0732 174.435 63.6468C174.479 68.1393 174.999 72.6137 175.521 77.0743L175.865 80.033C175.928 80.5792 176.004 81.1527 176.353 81.5919C176.702 82.0312 177.434 82.261 177.895 81.9219C178.178 80.8773 178.122 79.7803 178.066 78.7039C177.944 76.4143 177.823 74.1241 177.702 71.833C177.585 69.6027 177.458 67.3701 177.168 65.1534C176.94 63.4364 176.604 61.7334 176.163 60.0532C176.079 59.7051 175.962 59.3647 175.814 59.0359L175.118 59.0063L173.989 58.9539Z" fill="black"/>
<path d="M158.046 60.8793C156.551 60.679 154.984 60.5766 153.564 61.0614C152.207 61.5279 151.124 62.4861 150.148 63.4943C149.483 64.1439 148.933 64.8884 148.518 65.6996C147.686 67.4839 148.011 69.5412 148.518 71.4302C149.902 76.6328 152.649 81.6511 157.058 85.0854C158.4 86.1025 159.829 87.0159 161.33 87.8164C163.282 88.8838 165.298 89.8647 167.457 90.4814C168.06 90.6544 168.701 90.8001 169.319 90.6772C169.936 90.5543 170.519 90.0877 170.539 89.4983C167.001 87.6434 163.829 85.247 160.679 82.8619C159.815 82.2406 159.007 81.5556 158.261 80.8136C157.143 79.6415 156.355 78.2259 155.272 77.0266C154.296 75.9501 153.076 75.042 152.344 73.8108C151.885 72.9699 151.577 72.0641 151.434 71.1298C151.073 69.2249 151.005 67.2017 151.815 65.4197C152.625 63.6377 154.481 62.1743 156.555 62.2061C157.619 62.2221 158.632 62.6158 159.613 63.0004L165.786 65.431C165.71 65.3992 166.139 64.4001 166.12 64.2612C166.061 63.8265 165.978 63.8197 165.632 63.4897C165.041 62.939 164.124 62.5521 163.375 62.2312C161.677 61.5447 159.883 61.0895 158.046 60.8793Z" fill="#B649DE"/>
<path d="M145.759 47.2241C147.52 46.8592 149.15 46.0751 150.49 44.9483L149.199 51.2661C150.485 50.7156 151.732 50.0892 152.932 49.3908C153.105 52.2811 152.854 55.2374 151.712 57.9275C150.57 60.6176 148.465 63.0254 145.639 64.2203C148.147 64.6117 150.399 62.9321 152.632 61.7965C154.189 61.0068 156.848 61.8192 158.551 61.3413C159.996 60.9453 161.479 60.5994 162.782 59.8916C165.203 58.5739 165.752 54.7254 166.242 52.1537C166.732 49.5819 166.286 46.9192 165.471 44.4157C165.2 43.5291 164.833 42.6705 164.375 41.8531C163.747 40.7797 162.886 39.8395 161.849 39.092C160.811 38.3445 159.618 37.806 158.345 37.5104C157.073 37.2148 155.749 37.1686 154.456 37.3747C153.164 37.5808 151.931 38.0348 150.836 38.7079C148.587 40.0893 146.5 42.1217 144.783 44.0493C144.539 44.3156 143.531 45.2623 143.865 45.6606C144.273 46.1431 146.664 44.7685 147.069 44.5819C146.952 44.9938 146.225 47.1172 145.759 47.2241Z" fill="#FFD566"/>
<g opacity="0.1">
<path d="M155.911 120.832C155.53 120.904 155.135 120.892 154.76 120.796C152.09 120.154 149.322 119.947 146.576 120.181C145.571 120.268 144.422 120.373 143.677 119.726C143.116 119.246 142.97 118.481 142.875 117.776C141.374 106.624 144.461 95.4565 146.779 84.439C147.091 82.9529 146.979 80.545 146.51 79.093L146.4 78.7403C145.497 75.7315 145.551 72.5427 146.554 69.5617C144.889 73.0211 144.574 76.9146 145.664 80.5678L145.773 80.9206C146.242 82.3726 146.354 84.7895 146.042 86.2665C143.731 97.284 140.645 108.458 142.138 119.603C142.233 120.309 142.382 121.074 142.941 121.554C143.673 122.193 144.834 122.089 145.839 122.009C148.585 121.774 151.353 121.982 154.023 122.623C154.398 122.72 154.793 122.732 155.174 122.66C156.375 122.407 156.577 121.495 156.548 120.591C156.353 120.707 156.137 120.789 155.911 120.832Z" fill="black"/>
<path d="M178.666 114.253C178.729 114.44 178.716 114.642 178.63 114.821C178.543 115 178.39 115.143 178.197 115.222C177.792 115.393 177.349 115.471 176.904 115.45L161.835 115.823C161.44 115.832 161.046 115.882 160.662 115.971C158.89 116.394 159.556 117.109 159.366 117.705C159.134 118.434 158.014 118.374 157.234 118.16C157.307 118.809 157.343 119.544 157.029 120.09C157.714 120.186 158.451 120.102 158.634 119.526C158.817 118.95 158.158 118.215 159.93 117.792C160.314 117.703 160.708 117.653 161.103 117.644L176.163 117.271C176.607 117.292 177.05 117.214 177.456 117.043C177.648 116.963 177.802 116.82 177.888 116.642C177.974 116.463 177.987 116.261 177.924 116.074C179.632 116.8 181.911 115.81 182.416 114.125C182.492 113.87 182.535 113.607 182.543 113.342C181.63 114.362 179.979 114.817 178.666 114.253Z" fill="black"/>
</g>
<path d="M158.451 66.6964C159.747 69.2669 160.893 71.9008 161.884 74.5868C162.685 76.7512 163.39 79.0248 163.124 81.3006C162.858 83.5765 161.416 85.8751 159.073 86.592C158.078 86.897 157.012 86.8992 155.965 86.922C153.458 86.9769 150.956 87.1653 148.472 87.4864C147.316 87.6648 146.15 87.7856 144.98 87.8483C143.326 87.8983 141.672 87.6571 140.022 87.7823C137.353 87.9848 134.818 89.1478 132.139 89.1478C131.812 89.1666 131.486 89.1103 131.187 88.9839C130.7 88.7381 130.482 88.2056 130.316 87.714C129.943 86.6034 129.65 85.3289 130.282 84.3252C131.061 83.0894 132.83 82.8414 134.364 82.7321C137.819 82.5045 141.278 82.3452 144.741 82.2542C147.696 82.1768 150.897 82.0721 153.188 80.3288C153.343 80.2258 153.469 80.0901 153.557 79.9328C153.643 79.6664 153.633 79.3808 153.527 79.1203C152.619 75.8105 152.23 72.3954 152.371 68.9814C152.355 68.6752 152.44 68.3718 152.615 68.112C152.822 67.9037 153.092 67.7579 153.388 67.6932C155.434 67.081 157.624 67.0242 159.703 67.5294" fill="#FDA8A8"/>
<path d="M152.31 68.9791C151.956 69.0927 151.648 69.3048 151.427 69.5868C151.524 68.6377 151.393 67.6796 151.412 66.7237C151.432 65.7679 151.622 64.771 152.268 64.0291C153.091 63.0823 154.489 62.7432 155.797 62.7114C157.695 62.6636 159.659 63.1779 161.05 64.3841C161.945 65.1659 162.526 66.21 162.697 67.3428C162.741 67.6546 162.887 68.8243 162.538 69.0246C162.233 69.2021 161.074 68.5899 160.701 68.4921C157.929 67.7322 154.959 67.9046 152.31 68.9791Z" fill="#F75842"/>
<path opacity="0.1" d="M115.409 15.2483C116.352 15.2483 117.116 14.535 117.116 13.6552C117.116 12.7753 116.352 12.0621 115.409 12.0621C114.465 12.0621 113.701 12.7753 113.701 13.6552C113.701 14.535 114.465 15.2483 115.409 15.2483Z" fill="#B649DE"/>
<path opacity="0.1" d="M126.876 45.9724C127.819 45.9724 128.584 45.2592 128.584 44.3793C128.584 43.4995 127.819 42.7862 126.876 42.7862C125.933 42.7862 125.168 43.4995 125.168 44.3793C125.168 45.2592 125.933 45.9724 126.876 45.9724Z" fill="#B649DE"/>
<path opacity="0.1" d="M94.4251 16.8414C95.3684 16.8414 96.1331 16.1281 96.1331 15.2483C96.1331 14.3684 95.3684 13.6552 94.4251 13.6552C93.4818 13.6552 92.7172 14.3684 92.7172 15.2483C92.7172 16.1281 93.4818 16.8414 94.4251 16.8414Z" fill="#B649DE"/>
<path opacity="0.1" d="M41.9667 91.9448C44.3923 91.9448 46.3586 90.1107 46.3586 87.8483C46.3586 85.5858 44.3923 83.7517 41.9667 83.7517C39.5411 83.7517 37.5748 85.5858 37.5748 87.8483C37.5748 90.1107 39.5411 91.9448 41.9667 91.9448Z" fill="#B649DE"/>
<path opacity="0.1" d="M218.861 24.3517C219.805 24.3517 220.569 23.6385 220.569 22.7586C220.569 21.8788 219.805 21.1655 218.861 21.1655C217.918 21.1655 217.153 21.8788 217.153 22.7586C217.153 23.6385 217.918 24.3517 218.861 24.3517Z" fill="#B649DE"/>
<path opacity="0.1" d="M220.813 49.6138C223.913 49.6138 226.425 47.2702 226.425 44.3793C226.425 41.4884 223.913 39.1448 220.813 39.1448C217.714 39.1448 215.201 41.4884 215.201 44.3793C215.201 47.2702 217.714 49.6138 220.813 49.6138Z" fill="#B649DE"/>
<path opacity="0.1" d="M229.841 31.1793C230.784 31.1793 231.549 30.4661 231.549 29.5862C231.549 28.7064 230.784 27.9931 229.841 27.9931C228.898 27.9931 228.133 28.7064 228.133 29.5862C228.133 30.4661 228.898 31.1793 229.841 31.1793Z" fill="#B649DE"/>
<path opacity="0.1" d="M214.713 60.3103C215.657 60.3103 216.421 59.5971 216.421 58.7172C216.421 57.8374 215.657 57.1241 214.713 57.1241C213.77 57.1241 213.005 57.8374 213.005 58.7172C213.005 59.5971 213.77 60.3103 214.713 60.3103Z" fill="#B649DE"/>
<path opacity="0.1" d="M111.993 27.9931C112.936 27.9931 113.701 27.2798 113.701 26.4C113.701 25.5202 112.936 24.8069 111.993 24.8069C111.049 24.8069 110.285 25.5202 110.285 26.4C110.285 27.2798 111.049 27.9931 111.993 27.9931Z" fill="#B649DE"/>
<path opacity="0.1" d="M48.0666 108.559C49.0099 108.559 49.7745 107.845 49.7745 106.966C49.7745 106.086 49.0099 105.372 48.0666 105.372C47.1233 105.372 46.3586 106.086 46.3586 106.966C46.3586 107.845 47.1233 108.559 48.0666 108.559Z" fill="#B649DE"/>
<path opacity="0.1" d="M45.3826 72.1448C46.3259 72.1448 47.0906 71.4316 47.0906 70.5517C47.0906 69.6719 46.3259 68.9586 45.3826 68.9586C44.4394 68.9586 43.6747 69.6719 43.6747 70.5517C43.6747 71.4316 44.4394 72.1448 45.3826 72.1448Z" fill="#B649DE"/>
<path opacity="0.1" d="M139.076 13.6552C140.019 13.6552 140.784 12.9419 140.784 12.0621C140.784 11.1822 140.019 10.469 139.076 10.469C138.132 10.469 137.368 11.1822 137.368 12.0621C137.368 12.9419 138.132 13.6552 139.076 13.6552Z" fill="#B649DE"/>
<path opacity="0.1" d="M144.688 27.9931C145.631 27.9931 146.396 27.2798 146.396 26.4C146.396 25.5202 145.631 24.8069 144.688 24.8069C143.744 24.8069 142.98 25.5202 142.98 26.4C142.98 27.2798 143.744 27.9931 144.688 27.9931Z" fill="#B649DE"/>
<defs>
<linearGradient id="paint0_linear_302_374" x1="93.8298" y1="160.364" x2="93.8298" y2="37.3241" gradientUnits="userSpaceOnUse">
<stop stop-color="#808080" stop-opacity="0.25"/>
<stop offset="0.54" stop-color="#808080" stop-opacity="0.12"/>
<stop offset="1" stop-color="#808080" stop-opacity="0.1"/>
</linearGradient>
<linearGradient id="paint1_linear_302_374" x1="159.327" y1="159.547" x2="159.327" y2="36.6414" gradientUnits="userSpaceOnUse">
<stop stop-color="#808080" stop-opacity="0.25"/>
<stop offset="0.54" stop-color="#808080" stop-opacity="0.12"/>
<stop offset="1" stop-color="#808080" stop-opacity="0.1"/>
</linearGradient>
</defs>
</svg>
