<svg width="176" height="87" viewBox="0 0 176 87" fill="none" xmlns="http://www.w3.org/2000/svg">
<path d="M94.6894 35.5909H80.8377C80.671 35.5931 80.5054 35.5618 80.3509 35.4988C80.1964 35.4359 80.0561 35.3425 79.9382 35.2242C79.8202 35.106 79.7271 34.9652 79.6643 34.8103C79.6015 34.6554 79.5703 34.4894 79.5725 34.3222V20.4318C79.5725 16.4114 81.1652 12.5556 84.0001 9.71272C86.8351 6.86983 90.6802 5.27272 94.6894 5.27272V5.27272C96.6746 5.27272 98.6404 5.66482 100.474 6.42664C102.309 7.18845 103.975 8.30506 105.379 9.71272C106.782 11.1204 107.896 12.7915 108.656 14.6307C109.415 16.4699 109.806 18.4411 109.806 20.4318V20.4318C109.806 22.4225 109.415 24.3938 108.656 26.2329C107.896 28.0721 106.782 29.7433 105.379 31.1509C103.975 32.5586 102.309 33.6752 100.474 34.437C98.6404 35.1988 96.6746 35.5909 94.6894 35.5909V35.5909Z" stroke="#00B37E" stroke-width="2" stroke-linecap="round" stroke-linejoin="round"/>
<path d="M89.4314 18.4545H99.2903" stroke="#996DFF" stroke-width="2" stroke-linecap="round" stroke-linejoin="round"/>
<path d="M89.4314 23.7273H99.2903" stroke="#996DFF" stroke-width="2" stroke-linecap="round" stroke-linejoin="round"/>
<path d="M16.1797 71.5312C16.1797 70.9336 16.0859 70.4062 15.8984 69.9492C15.7227 69.4805 15.4062 69.0586 14.9492 68.6836C14.5039 68.3086 13.8828 67.9512 13.0859 67.6113C12.3008 67.2715 11.3047 66.9258 10.0977 66.5742C8.83203 66.1992 7.68945 65.7832 6.66992 65.3262C5.65039 64.8574 4.77734 64.3242 4.05078 63.7266C3.32422 63.1289 2.76758 62.4434 2.38086 61.6699C1.99414 60.8965 1.80078 60.0117 1.80078 59.0156C1.80078 58.0195 2.00586 57.0996 2.41602 56.2559C2.82617 55.4121 3.41211 54.6797 4.17383 54.0586C4.94727 53.4258 5.86719 52.9336 6.93359 52.582C8 52.2305 9.18945 52.0547 10.502 52.0547C12.4238 52.0547 14.0527 52.4238 15.3887 53.1621C16.7363 53.8887 17.7617 54.8438 18.4648 56.0273C19.168 57.1992 19.5195 58.4531 19.5195 59.7891H16.1445C16.1445 58.8281 15.9395 57.9785 15.5293 57.2402C15.1191 56.4902 14.498 55.9043 13.666 55.4824C12.834 55.0488 11.7793 54.832 10.502 54.832C9.29492 54.832 8.29883 55.0137 7.51367 55.377C6.72852 55.7402 6.14258 56.2324 5.75586 56.8535C5.38086 57.4746 5.19336 58.1836 5.19336 58.9805C5.19336 59.5195 5.30469 60.0117 5.52734 60.457C5.76172 60.8906 6.11914 61.2949 6.59961 61.6699C7.0918 62.0449 7.71289 62.3906 8.46289 62.707C9.22461 63.0234 10.1328 63.3281 11.1875 63.6211C12.6406 64.0312 13.8945 64.4883 14.9492 64.9922C16.0039 65.4961 16.8711 66.0645 17.5508 66.6973C18.2422 67.3184 18.752 68.0273 19.0801 68.8242C19.4199 69.6094 19.5898 70.5 19.5898 71.4961C19.5898 72.5391 19.3789 73.4824 18.957 74.3262C18.5352 75.1699 17.9316 75.8906 17.1465 76.4883C16.3613 77.0859 15.418 77.5488 14.3164 77.877C13.2266 78.1934 12.0078 78.3516 10.6602 78.3516C9.47656 78.3516 8.31055 78.1875 7.16211 77.8594C6.02539 77.5312 4.98828 77.0391 4.05078 76.3828C3.125 75.7266 2.38086 74.918 1.81836 73.957C1.26758 72.9844 0.992188 71.8594 0.992188 70.582H4.36719C4.36719 71.4609 4.53711 72.2168 4.87695 72.8496C5.2168 73.4707 5.67969 73.9863 6.26562 74.3965C6.86328 74.8066 7.53711 75.1113 8.28711 75.3105C9.04883 75.498 9.83984 75.5918 10.6602 75.5918C11.8438 75.5918 12.8457 75.4277 13.666 75.0996C14.4863 74.7715 15.1074 74.3027 15.5293 73.6934C15.9629 73.084 16.1797 72.3633 16.1797 71.5312ZM31.0332 75.6797C31.8066 75.6797 32.5215 75.5215 33.1777 75.2051C33.834 74.8887 34.373 74.4551 34.7949 73.9043C35.2168 73.3418 35.457 72.7031 35.5156 71.9883H38.6094C38.5508 73.1133 38.1699 74.1621 37.4668 75.1348C36.7754 76.0957 35.8672 76.875 34.7422 77.4727C33.6172 78.0586 32.3809 78.3516 31.0332 78.3516C29.6035 78.3516 28.3555 78.0996 27.2891 77.5957C26.2344 77.0918 25.3555 76.4004 24.6523 75.5215C23.9609 74.6426 23.4395 73.6348 23.0879 72.498C22.748 71.3496 22.5781 70.1367 22.5781 68.8594V68.1211C22.5781 66.8438 22.748 65.6367 23.0879 64.5C23.4395 63.3516 23.9609 62.3379 24.6523 61.459C25.3555 60.5801 26.2344 59.8887 27.2891 59.3848C28.3555 58.8809 29.6035 58.6289 31.0332 58.6289C32.5215 58.6289 33.8223 58.9336 34.9355 59.543C36.0488 60.1406 36.9219 60.9609 37.5547 62.0039C38.1992 63.0352 38.5508 64.207 38.6094 65.5195H35.5156C35.457 64.7344 35.2344 64.0254 34.8477 63.3926C34.4727 62.7598 33.957 62.2559 33.3008 61.8809C32.6562 61.4941 31.9004 61.3008 31.0332 61.3008C30.0371 61.3008 29.1992 61.5 28.5195 61.8984C27.8516 62.2852 27.3184 62.8125 26.9199 63.4805C26.5332 64.1367 26.252 64.8691 26.0762 65.6777C25.9121 66.4746 25.8301 67.2891 25.8301 68.1211V68.8594C25.8301 69.6914 25.9121 70.5117 26.0762 71.3203C26.2402 72.1289 26.5156 72.8613 26.9023 73.5176C27.3008 74.1738 27.834 74.7012 28.502 75.0996C29.1816 75.4863 30.0254 75.6797 31.0332 75.6797ZM45.5176 51V78H42.2656V51H45.5176ZM44.7441 67.7695L43.3906 67.7168C43.4023 66.416 43.5957 65.2148 43.9707 64.1133C44.3457 63 44.873 62.0332 45.5527 61.2129C46.2324 60.3926 47.041 59.7598 47.9785 59.3145C48.9277 58.8574 49.9766 58.6289 51.125 58.6289C52.0625 58.6289 52.9062 58.7578 53.6562 59.0156C54.4062 59.2617 55.0449 59.6602 55.5723 60.2109C56.1113 60.7617 56.5215 61.4766 56.8027 62.3555C57.084 63.2227 57.2246 64.2832 57.2246 65.5371V78H53.9551V65.502C53.9551 64.5059 53.8086 63.709 53.5156 63.1113C53.2227 62.502 52.7949 62.0625 52.2324 61.793C51.6699 61.5117 50.9785 61.3711 50.1582 61.3711C49.3496 61.3711 48.6113 61.541 47.9434 61.8809C47.2871 62.2207 46.7188 62.6895 46.2383 63.2871C45.7695 63.8848 45.4004 64.5703 45.1309 65.3438C44.873 66.1055 44.7441 66.9141 44.7441 67.7695ZM61.2324 68.7012V68.2969C61.2324 66.9258 61.4316 65.6543 61.8301 64.4824C62.2285 63.2988 62.8027 62.2734 63.5527 61.4062C64.3027 60.5273 65.2109 59.8477 66.2773 59.3672C67.3438 58.875 68.5391 58.6289 69.8633 58.6289C71.1992 58.6289 72.4004 58.875 73.4668 59.3672C74.5449 59.8477 75.459 60.5273 76.209 61.4062C76.9707 62.2734 77.5508 63.2988 77.9492 64.4824C78.3477 65.6543 78.5469 66.9258 78.5469 68.2969V68.7012C78.5469 70.0723 78.3477 71.3438 77.9492 72.5156C77.5508 73.6875 76.9707 74.7129 76.209 75.5918C75.459 76.459 74.5508 77.1387 73.4844 77.6309C72.4297 78.1113 71.2344 78.3516 69.8984 78.3516C68.5625 78.3516 67.3613 78.1113 66.2949 77.6309C65.2285 77.1387 64.3145 76.459 63.5527 75.5918C62.8027 74.7129 62.2285 73.6875 61.8301 72.5156C61.4316 71.3438 61.2324 70.0723 61.2324 68.7012ZM64.4844 68.2969V68.7012C64.4844 69.6504 64.5957 70.5469 64.8184 71.3906C65.041 72.2227 65.375 72.9609 65.8203 73.6055C66.2773 74.25 66.8457 74.7598 67.5254 75.1348C68.2051 75.498 68.9961 75.6797 69.8984 75.6797C70.7891 75.6797 71.5684 75.498 72.2363 75.1348C72.916 74.7598 73.4785 74.25 73.9238 73.6055C74.3691 72.9609 74.7031 72.2227 74.9258 71.3906C75.1602 70.5469 75.2773 69.6504 75.2773 68.7012V68.2969C75.2773 67.3594 75.1602 66.4746 74.9258 65.6426C74.7031 64.7988 74.3633 64.0547 73.9062 63.4102C73.4609 62.7539 72.8984 62.2383 72.2188 61.8633C71.5508 61.4883 70.7656 61.3008 69.8633 61.3008C68.9727 61.3008 68.1875 61.4883 67.5078 61.8633C66.8398 62.2383 66.2773 62.7539 65.8203 63.4102C65.375 64.0547 65.041 64.7988 64.8184 65.6426C64.5957 66.4746 64.4844 67.3594 64.4844 68.2969ZM81.7637 68.7012V68.2969C81.7637 66.9258 81.9629 65.6543 82.3613 64.4824C82.7598 63.2988 83.334 62.2734 84.084 61.4062C84.834 60.5273 85.7422 59.8477 86.8086 59.3672C87.875 58.875 89.0703 58.6289 90.3945 58.6289C91.7305 58.6289 92.9316 58.875 93.998 59.3672C95.0762 59.8477 95.9902 60.5273 96.7402 61.4062C97.502 62.2734 98.082 63.2988 98.4805 64.4824C98.8789 65.6543 99.0781 66.9258 99.0781 68.2969V68.7012C99.0781 70.0723 98.8789 71.3438 98.4805 72.5156C98.082 73.6875 97.502 74.7129 96.7402 75.5918C95.9902 76.459 95.082 77.1387 94.0156 77.6309C92.9609 78.1113 91.7656 78.3516 90.4297 78.3516C89.0938 78.3516 87.8926 78.1113 86.8262 77.6309C85.7598 77.1387 84.8457 76.459 84.084 75.5918C83.334 74.7129 82.7598 73.6875 82.3613 72.5156C81.9629 71.3438 81.7637 70.0723 81.7637 68.7012ZM85.0156 68.2969V68.7012C85.0156 69.6504 85.127 70.5469 85.3496 71.3906C85.5723 72.2227 85.9062 72.9609 86.3516 73.6055C86.8086 74.25 87.377 74.7598 88.0566 75.1348C88.7363 75.498 89.5273 75.6797 90.4297 75.6797C91.3203 75.6797 92.0996 75.498 92.7676 75.1348C93.4473 74.7598 94.0098 74.25 94.4551 73.6055C94.9004 72.9609 95.2344 72.2227 95.457 71.3906C95.6914 70.5469 95.8086 69.6504 95.8086 68.7012V68.2969C95.8086 67.3594 95.6914 66.4746 95.457 65.6426C95.2344 64.7988 94.8945 64.0547 94.4375 63.4102C93.9922 62.7539 93.4297 62.2383 92.75 61.8633C92.082 61.4883 91.2969 61.3008 90.3945 61.3008C89.5039 61.3008 88.7188 61.4883 88.0391 61.8633C87.3711 62.2383 86.8086 62.7539 86.3516 63.4102C85.9062 64.0547 85.5723 64.7988 85.3496 65.6426C85.127 66.4746 85.0156 67.3594 85.0156 68.2969ZM106.689 51V78H103.42V51H106.689Z" fill="#996DFF"/>
<path d="M127.924 65.0877V67.513H115.785V65.0877H127.924ZM116.247 55.4176V77.9091H113.274V55.4176H116.247ZM130.512 55.4176V77.9091H127.554V55.4176H130.512Z" fill="#00B37E"/>
<path d="M142.281 78.218C141.12 78.218 140.068 78.0224 139.123 77.631C138.188 77.2294 137.382 76.6682 136.704 75.9473C136.037 75.2264 135.523 74.3716 135.164 73.383C134.805 72.3944 134.625 71.313 134.625 70.139V69.4902C134.625 68.1309 134.825 66.9208 135.226 65.8601C135.626 64.7891 136.17 63.8828 136.858 63.1413C137.547 62.3999 138.327 61.8386 139.2 61.4576C140.073 61.0765 140.977 60.886 141.911 60.886C143.102 60.886 144.129 61.092 144.992 61.5039C145.865 61.9158 146.579 62.4925 147.133 63.234C147.688 63.9652 148.099 64.8303 148.366 65.8292C148.633 66.8178 148.766 67.8992 148.766 69.0732V70.3553H136.319V68.0227H145.916V67.8065C145.875 67.065 145.721 66.3441 145.454 65.6438C145.197 64.9435 144.787 64.3668 144.222 63.9137C143.657 63.4606 142.887 63.234 141.911 63.234C141.264 63.234 140.668 63.3731 140.124 63.6511C139.58 63.9189 139.113 64.3205 138.722 64.856C138.332 65.3915 138.029 66.0455 137.814 66.8178C137.598 67.5902 137.49 68.481 137.49 69.4902V70.139C137.49 70.932 137.598 71.6786 137.814 72.3789C138.039 73.0689 138.363 73.6765 138.784 74.2017C139.215 74.7269 139.734 75.1389 140.34 75.4375C140.956 75.7362 141.654 75.8855 142.435 75.8855C143.441 75.8855 144.294 75.6795 144.992 75.2676C145.69 74.8557 146.301 74.3047 146.825 73.6147L148.55 74.9895C148.191 75.5353 147.734 76.0554 147.179 76.5497C146.625 77.044 145.942 77.4457 145.131 77.7546C144.33 78.0636 143.38 78.218 142.281 78.218Z" fill="#00B37E"/>
<path d="M155.19 54.1818V77.9091H152.325V54.1818H155.19Z" fill="#00B37E"/>
<path d="M162.615 64.408V84.3352H159.75V61.195H162.368L162.615 64.408ZM173.845 69.413V69.7374C173.845 70.9526 173.701 72.0803 173.413 73.1204C173.126 74.1502 172.705 75.0462 172.15 75.8082C171.606 76.5703 170.933 77.1625 170.132 77.5847C169.331 78.0069 168.412 78.218 167.375 78.218C166.317 78.218 165.382 78.043 164.571 77.6928C163.76 77.3427 163.072 76.8329 162.507 76.1635C161.942 75.4941 161.49 74.6909 161.151 73.7537C160.823 72.8166 160.597 71.761 160.474 70.587V68.8569C160.597 67.6211 160.828 66.514 161.167 65.5357C161.506 64.5574 161.952 63.7232 162.507 63.0332C163.072 62.3329 163.755 61.8026 164.556 61.4421C165.357 61.0714 166.281 60.886 167.329 60.886C168.376 60.886 169.305 61.092 170.117 61.5039C170.928 61.9055 171.611 62.4823 172.166 63.234C172.72 63.9858 173.136 64.8869 173.413 65.9373C173.701 66.9775 173.845 68.136 173.845 69.413ZM170.979 69.7374V69.413C170.979 68.5788 170.892 67.7962 170.717 67.065C170.543 66.3235 170.271 65.6747 169.901 65.1186C169.542 64.5522 169.079 64.1094 168.515 63.7901C167.95 63.4606 167.277 63.2958 166.497 63.2958C165.778 63.2958 165.151 63.4194 164.617 63.6666C164.094 63.9137 163.647 64.2484 163.277 64.6706C162.907 65.0826 162.604 65.5563 162.368 66.0918C162.142 66.617 161.973 67.1628 161.86 67.7292V71.7301C162.065 72.451 162.353 73.1307 162.723 73.7692C163.092 74.3974 163.585 74.9071 164.201 75.2985C164.818 75.6795 165.593 75.87 166.527 75.87C167.298 75.87 167.96 75.7104 168.515 75.3912C169.079 75.0616 169.542 74.6136 169.901 74.0472C170.271 73.4808 170.543 72.832 170.717 72.1009C170.892 71.3594 170.979 70.5716 170.979 69.7374Z" fill="#00B37E"/>
</svg>
