<svg width="154" height="45" viewBox="0 0 154 45" fill="none" xmlns="http://www.w3.org/2000/svg">
<path fill-rule="evenodd" clip-rule="evenodd" d="M12.9339 10.4315C10.6348 10.4315 8.4295 11.3283 6.80325 12.9252C5.17695 14.5222 4.26299 16.6884 4.26299 18.9476V27.31C4.26272 27.3305 4.26657 27.3508 4.2744 27.3697C4.28222 27.3886 4.29377 27.4057 4.30829 27.4199C4.3228 27.4342 4.33997 27.4453 4.35875 27.4528C4.37753 27.4603 4.39758 27.464 4.41774 27.4637L4.4259 27.4636L12.9339 27.4637C14.0724 27.4637 15.1997 27.2435 16.2516 26.8157C17.3035 26.3878 18.2593 25.7607 19.0646 24.97C19.8698 24.1793 20.5087 23.2405 20.9446 22.2071C21.3805 21.1738 21.6048 20.0662 21.6048 18.9476C21.6048 17.829 21.3805 16.7214 20.9446 15.6881C20.5087 14.6547 19.8698 13.7159 19.0646 12.9252C18.2593 12.1345 17.3035 11.5074 16.2516 11.0795C15.1997 10.6517 14.0724 10.4315 12.9339 10.4315ZM12.9339 28.6666H4.4293C4.24621 28.6684 4.06462 28.6344 3.89507 28.5667C3.72405 28.4985 3.5688 28.3973 3.43844 28.2693C3.30809 28.1413 3.20525 27.9891 3.13593 27.8216C3.06719 27.6555 3.03275 27.4778 3.03455 27.2987V18.9476C3.03455 16.3705 4.0771 13.8986 5.9334 12.0758C7.78976 10.2529 10.3079 9.22858 12.9339 9.22858C14.2342 9.22858 15.5216 9.48006 16.7228 9.96862C17.924 10.4572 19.0153 11.1732 19.9344 12.0758C20.8536 12.9784 21.5826 14.0498 22.08 15.2288C22.5773 16.4079 22.8333 17.6715 22.8333 18.9476C22.8333 20.2237 22.5773 21.4873 22.08 22.6664C21.5826 23.8454 20.8536 24.9168 19.9344 25.8194C19.0153 26.722 17.924 27.438 16.7228 27.9266C15.5216 28.4151 14.2342 28.6666 12.9339 28.6666Z" fill="#00B37E"/>
<path fill-rule="evenodd" clip-rule="evenodd" d="M9.09015 17.7583C9.09015 17.4262 9.36515 17.1569 9.70437 17.1569H15.7599C16.0991 17.1569 16.3741 17.4262 16.3741 17.7583C16.3741 18.0905 16.0991 18.3598 15.7599 18.3598H9.70437C9.36515 18.3598 9.09015 18.0905 9.09015 17.7583Z" fill="#996DFF"/>
<path fill-rule="evenodd" clip-rule="evenodd" d="M9.09015 20.9297C9.09015 20.5975 9.36515 20.3282 9.70437 20.3282H15.7599C16.0991 20.3282 16.3741 20.5975 16.3741 20.9297C16.3741 21.2619 16.0991 21.5311 15.7599 21.5311H9.70437C9.36515 21.5311 9.09015 21.2619 9.09015 20.9297Z" fill="#996DFF"/>
<path d="M116.77 17.4652V19.2668H107.561V17.4652H116.77ZM107.912 10.2817V26.9896H105.656V10.2817H107.912ZM118.733 10.2817V26.9896H116.489V10.2817H118.733Z" fill="#00B37E"/>
<path d="M127.661 27.2191C126.781 27.2191 125.982 27.0738 125.266 26.7831C124.557 26.4847 123.945 26.0678 123.431 25.5323C122.925 24.9968 122.535 24.3618 122.262 23.6274C121.99 22.893 121.853 22.0897 121.853 21.2176V20.7356C121.853 19.7258 122.005 18.8269 122.309 18.0389C122.613 17.2433 123.026 16.5701 123.548 16.0193C124.07 15.4685 124.662 15.0515 125.324 14.7685C125.986 14.4854 126.672 14.3439 127.381 14.3439C128.285 14.3439 129.064 14.4969 129.718 14.8029C130.38 15.1089 130.922 15.5373 131.342 16.0881C131.763 16.6313 132.075 17.2739 132.277 18.016C132.48 18.7504 132.581 19.5537 132.581 20.4258V21.3782H123.139V19.6455H130.419V19.4848C130.388 18.934 130.271 18.3985 130.069 17.8783C129.874 17.3581 129.562 16.9297 129.134 16.5931C128.705 16.2564 128.121 16.0881 127.381 16.0881C126.89 16.0881 126.438 16.1914 126.025 16.398C125.612 16.5969 125.258 16.8952 124.962 17.293C124.666 17.6908 124.436 18.1766 124.272 18.7504C124.109 19.3242 124.027 19.9859 124.027 20.7356V21.2176C124.027 21.8066 124.109 22.3613 124.272 22.8815C124.444 23.394 124.689 23.8454 125.009 24.2356C125.336 24.6257 125.729 24.9317 126.189 25.1536C126.656 25.3754 127.186 25.4864 127.778 25.4864C128.542 25.4864 129.188 25.3334 129.718 25.0274C130.248 24.7213 130.711 24.3121 131.109 23.7995L132.418 24.8208C132.145 25.2263 131.798 25.6126 131.377 25.9798C130.957 26.347 130.439 26.6454 129.823 26.8749C129.216 27.1044 128.495 27.2191 127.661 27.2191Z" fill="#00B37E"/>
<path d="M137.454 9.36365V26.9896H135.281V9.36365H137.454Z" fill="#00B37E"/>
<path d="M143.087 16.9603V31.7633H140.913V14.5734H142.9L143.087 16.9603ZM151.606 20.6782V20.9192C151.606 21.8219 151.497 22.6596 151.279 23.4323C151.061 24.1973 150.741 24.8629 150.321 25.429C149.908 25.9951 149.398 26.435 148.79 26.7486C148.182 27.0623 147.485 27.2191 146.698 27.2191C145.896 27.2191 145.187 27.0891 144.571 26.829C143.956 26.5689 143.434 26.1902 143.005 25.6929C142.577 25.1957 142.234 24.5989 141.977 23.9028C141.728 23.2066 141.556 22.4225 141.463 21.5504V20.2651C141.556 19.3471 141.731 18.5247 141.989 17.798C142.246 17.0712 142.585 16.4515 143.005 15.939C143.434 15.4188 143.952 15.0248 144.559 14.757C145.167 14.4816 145.868 14.3439 146.663 14.3439C147.458 14.3439 148.163 14.4969 148.778 14.8029C149.394 15.1013 149.912 15.5297 150.332 16.0881C150.753 16.6466 151.069 17.316 151.279 18.0963C151.497 18.869 151.606 19.7296 151.606 20.6782ZM149.433 20.9192V20.6782C149.433 20.0586 149.366 19.4772 149.234 18.934C149.102 18.3832 148.895 17.9012 148.615 17.4881C148.342 17.0674 147.991 16.7384 147.563 16.5012C147.134 16.2564 146.624 16.134 146.032 16.134C145.487 16.134 145.011 16.2258 144.606 16.4094C144.209 16.5931 143.87 16.8417 143.59 17.1553C143.309 17.4613 143.079 17.8133 142.9 18.2111C142.729 18.6012 142.6 19.0067 142.514 19.4274V22.3995C142.67 22.935 142.888 23.4399 143.169 23.9143C143.449 24.3809 143.823 24.7596 144.291 25.0503C144.758 25.3334 145.346 25.4749 146.055 25.4749C146.64 25.4749 147.142 25.3563 147.563 25.1192C147.991 24.8744 148.342 24.5416 148.615 24.1208C148.895 23.7001 149.102 23.2181 149.234 22.6749C149.366 22.1241 149.433 21.5389 149.433 20.9192Z" fill="#00B37E"/>
<path d="M42.9531 22.6875C42.9531 22.2891 42.8906 21.9375 42.7656 21.6328C42.6484 21.3203 42.4375 21.0391 42.1328 20.7891C41.8359 20.5391 41.4219 20.3008 40.8906 20.0742C40.3672 19.8477 39.7031 19.6172 38.8984 19.3828C38.0547 19.1328 37.293 18.8555 36.6133 18.5508C35.9336 18.2383 35.3516 17.8828 34.8672 17.4844C34.3828 17.0859 34.0117 16.6289 33.7539 16.1133C33.4961 15.5977 33.3672 15.0078 33.3672 14.3438C33.3672 13.6797 33.5039 13.0664 33.7773 12.5039C34.0508 11.9414 34.4414 11.4531 34.9492 11.0391C35.4648 10.6172 36.0781 10.2891 36.7891 10.0547C37.5 9.82031 38.293 9.70312 39.168 9.70312C40.4492 9.70312 41.5352 9.94922 42.4258 10.4414C43.3242 10.9258 44.0078 11.5625 44.4766 12.3516C44.9453 13.1328 45.1797 13.9688 45.1797 14.8594H42.9297C42.9297 14.2188 42.793 13.6523 42.5195 13.1602C42.2461 12.6602 41.832 12.2695 41.2773 11.9883C40.7227 11.6992 40.0195 11.5547 39.168 11.5547C38.3633 11.5547 37.6992 11.6758 37.1758 11.918C36.6523 12.1602 36.2617 12.4883 36.0039 12.9023C35.7539 13.3164 35.6289 13.7891 35.6289 14.3203C35.6289 14.6797 35.7031 15.0078 35.8516 15.3047C36.0078 15.5938 36.2461 15.8633 36.5664 16.1133C36.8945 16.3633 37.3086 16.5938 37.8086 16.8047C38.3164 17.0156 38.9219 17.2188 39.625 17.4141C40.5938 17.6875 41.4297 17.9922 42.1328 18.3281C42.8359 18.6641 43.4141 19.043 43.8672 19.4648C44.3281 19.8789 44.668 20.3516 44.8867 20.8828C45.1133 21.4062 45.2266 22 45.2266 22.6641C45.2266 23.3594 45.0859 23.9883 44.8047 24.5508C44.5234 25.1133 44.1211 25.5938 43.5977 25.9922C43.0742 26.3906 42.4453 26.6992 41.7109 26.918C40.9844 27.1289 40.1719 27.2344 39.2734 27.2344C38.4844 27.2344 37.707 27.125 36.9414 26.9062C36.1836 26.6875 35.4922 26.3594 34.8672 25.9219C34.25 25.4844 33.7539 24.9453 33.3789 24.3047C33.0117 23.6562 32.8281 22.9062 32.8281 22.0547H35.0781C35.0781 22.6406 35.1914 23.1445 35.418 23.5664C35.6445 23.9805 35.9531 24.3242 36.3438 24.5977C36.7422 24.8711 37.1914 25.0742 37.6914 25.207C38.1992 25.332 38.7266 25.3945 39.2734 25.3945C40.0625 25.3945 40.7305 25.2852 41.2773 25.0664C41.8242 24.8477 42.2383 24.5352 42.5195 24.1289C42.8086 23.7227 42.9531 23.2422 42.9531 22.6875ZM52.8555 25.4531C53.3711 25.4531 53.8477 25.3477 54.2852 25.1367C54.7227 24.9258 55.082 24.6367 55.3633 24.2695C55.6445 23.8945 55.8047 23.4688 55.8438 22.9922H57.9062C57.8672 23.7422 57.6133 24.4414 57.1445 25.0898C56.6836 25.7305 56.0781 26.25 55.3281 26.6484C54.5781 27.0391 53.7539 27.2344 52.8555 27.2344C51.9023 27.2344 51.0703 27.0664 50.3594 26.7305C49.6562 26.3945 49.0703 25.9336 48.6016 25.3477C48.1406 24.7617 47.793 24.0898 47.5586 23.332C47.332 22.5664 47.2188 21.7578 47.2188 20.9062V20.4141C47.2188 19.5625 47.332 18.7578 47.5586 18C47.793 17.2344 48.1406 16.5586 48.6016 15.9727C49.0703 15.3867 49.6562 14.9258 50.3594 14.5898C51.0703 14.2539 51.9023 14.0859 52.8555 14.0859C53.8477 14.0859 54.7148 14.2891 55.457 14.6953C56.1992 15.0938 56.7812 15.6406 57.2031 16.3359C57.6328 17.0234 57.8672 17.8047 57.9062 18.6797H55.8438C55.8047 18.1562 55.6562 17.6836 55.3984 17.2617C55.1484 16.8398 54.8047 16.5039 54.3672 16.2539C53.9375 15.9961 53.4336 15.8672 52.8555 15.8672C52.1914 15.8672 51.6328 16 51.1797 16.2656C50.7344 16.5234 50.3789 16.875 50.1133 17.3203C49.8555 17.7578 49.668 18.2461 49.5508 18.7852C49.4414 19.3164 49.3867 19.8594 49.3867 20.4141V20.9062C49.3867 21.4609 49.4414 22.0078 49.5508 22.5469C49.6602 23.0859 49.8438 23.5742 50.1016 24.0117C50.3672 24.4492 50.7227 24.8008 51.168 25.0664C51.6211 25.3242 52.1836 25.4531 52.8555 25.4531ZM62.5117 9V27H60.3438V9H62.5117ZM61.9961 20.1797L61.0938 20.1445C61.1016 19.2773 61.2305 18.4766 61.4805 17.7422C61.7305 17 62.082 16.3555 62.5352 15.8086C62.9883 15.2617 63.5273 14.8398 64.1523 14.543C64.7852 14.2383 65.4844 14.0859 66.25 14.0859C66.875 14.0859 67.4375 14.1719 67.9375 14.3438C68.4375 14.5078 68.8633 14.7734 69.2148 15.1406C69.5742 15.5078 69.8477 15.9844 70.0352 16.5703C70.2227 17.1484 70.3164 17.8555 70.3164 18.6914V27H68.1367V18.668C68.1367 18.0039 68.0391 17.4727 67.8438 17.0742C67.6484 16.668 67.3633 16.375 66.9883 16.1953C66.6133 16.0078 66.1523 15.9141 65.6055 15.9141C65.0664 15.9141 64.5742 16.0273 64.1289 16.2539C63.6914 16.4805 63.3125 16.793 62.9922 17.1914C62.6797 17.5898 62.4336 18.0469 62.2539 18.5625C62.082 19.0703 61.9961 19.6094 61.9961 20.1797ZM72.9883 20.8008V20.5312C72.9883 19.6172 73.1211 18.7695 73.3867 17.9883C73.6523 17.1992 74.0352 16.5156 74.5352 15.9375C75.0352 15.3516 75.6406 14.8984 76.3516 14.5781C77.0625 14.25 77.8594 14.0859 78.7422 14.0859C79.6328 14.0859 80.4336 14.25 81.1445 14.5781C81.8633 14.8984 82.4727 15.3516 82.9727 15.9375C83.4805 16.5156 83.8672 17.1992 84.1328 17.9883C84.3984 18.7695 84.5312 19.6172 84.5312 20.5312V20.8008C84.5312 21.7148 84.3984 22.5625 84.1328 23.3438C83.8672 24.125 83.4805 24.8086 82.9727 25.3945C82.4727 25.9727 81.8672 26.4258 81.1562 26.7539C80.4531 27.0742 79.6562 27.2344 78.7656 27.2344C77.875 27.2344 77.0742 27.0742 76.3633 26.7539C75.6523 26.4258 75.043 25.9727 74.5352 25.3945C74.0352 24.8086 73.6523 24.125 73.3867 23.3438C73.1211 22.5625 72.9883 21.7148 72.9883 20.8008ZM75.1562 20.5312V20.8008C75.1562 21.4336 75.2305 22.0312 75.3789 22.5938C75.5273 23.1484 75.75 23.6406 76.0469 24.0703C76.3516 24.5 76.7305 24.8398 77.1836 25.0898C77.6367 25.332 78.1641 25.4531 78.7656 25.4531C79.3594 25.4531 79.8789 25.332 80.3242 25.0898C80.7773 24.8398 81.1523 24.5 81.4492 24.0703C81.7461 23.6406 81.9688 23.1484 82.1172 22.5938C82.2734 22.0312 82.3516 21.4336 82.3516 20.8008V20.5312C82.3516 19.9062 82.2734 19.3164 82.1172 18.7617C81.9688 18.1992 81.7422 17.7031 81.4375 17.2734C81.1406 16.8359 80.7656 16.4922 80.3125 16.2422C79.8672 15.9922 79.3438 15.8672 78.7422 15.8672C78.1484 15.8672 77.625 15.9922 77.1719 16.2422C76.7266 16.4922 76.3516 16.8359 76.0469 17.2734C75.75 17.7031 75.5273 18.1992 75.3789 18.7617C75.2305 19.3164 75.1562 19.9062 75.1562 20.5312ZM86.6758 20.8008V20.5312C86.6758 19.6172 86.8086 18.7695 87.0742 17.9883C87.3398 17.1992 87.7227 16.5156 88.2227 15.9375C88.7227 15.3516 89.3281 14.8984 90.0391 14.5781C90.75 14.25 91.5469 14.0859 92.4297 14.0859C93.3203 14.0859 94.1211 14.25 94.832 14.5781C95.5508 14.8984 96.1602 15.3516 96.6602 15.9375C97.168 16.5156 97.5547 17.1992 97.8203 17.9883C98.0859 18.7695 98.2188 19.6172 98.2188 20.5312V20.8008C98.2188 21.7148 98.0859 22.5625 97.8203 23.3438C97.5547 24.125 97.168 24.8086 96.6602 25.3945C96.1602 25.9727 95.5547 26.4258 94.8438 26.7539C94.1406 27.0742 93.3438 27.2344 92.4531 27.2344C91.5625 27.2344 90.7617 27.0742 90.0508 26.7539C89.3398 26.4258 88.7305 25.9727 88.2227 25.3945C87.7227 24.8086 87.3398 24.125 87.0742 23.3438C86.8086 22.5625 86.6758 21.7148 86.6758 20.8008ZM88.8438 20.5312V20.8008C88.8438 21.4336 88.918 22.0312 89.0664 22.5938C89.2148 23.1484 89.4375 23.6406 89.7344 24.0703C90.0391 24.5 90.418 24.8398 90.8711 25.0898C91.3242 25.332 91.8516 25.4531 92.4531 25.4531C93.0469 25.4531 93.5664 25.332 94.0117 25.0898C94.4648 24.8398 94.8398 24.5 95.1367 24.0703C95.4336 23.6406 95.6562 23.1484 95.8047 22.5938C95.9609 22.0312 96.0391 21.4336 96.0391 20.8008V20.5312C96.0391 19.9062 95.9609 19.3164 95.8047 18.7617C95.6562 18.1992 95.4297 17.7031 95.125 17.2734C94.8281 16.8359 94.4531 16.4922 94 16.2422C93.5547 15.9922 93.0312 15.8672 92.4297 15.8672C91.8359 15.8672 91.3125 15.9922 90.8594 16.2422C90.4141 16.4922 90.0391 16.8359 89.7344 17.2734C89.4375 17.7031 89.2148 18.1992 89.0664 18.7617C88.918 19.3164 88.8438 19.9062 88.8438 20.5312ZM103.293 9V27H101.113V9H103.293Z" fill="#996DFF"/>
</svg>
