<svg width="154" height="26" viewBox="0 0 154 26" fill="none" xmlns="http://www.w3.org/2000/svg">
<path fill-rule="evenodd" clip-rule="evenodd" d="M12.9339 3.43149C10.6348 3.43149 8.4295 4.32831 6.80325 5.92521C5.17695 7.52216 4.26299 9.68844 4.26299 11.9476V20.31C4.26272 20.3305 4.26657 20.3508 4.2744 20.3697C4.28222 20.3886 4.29377 20.4057 4.30829 20.4199C4.3228 20.4342 4.33997 20.4453 4.35875 20.4528C4.37753 20.4603 4.39758 20.464 4.41774 20.4637L4.4259 20.4636L12.9339 20.4637C14.0724 20.4637 15.1997 20.2435 16.2516 19.8157C17.3035 19.3878 18.2593 18.7607 19.0646 17.97C19.8698 17.1793 20.5087 16.2405 20.9446 15.2071C21.3805 14.1738 21.6048 13.0662 21.6048 11.9476C21.6048 10.829 21.3805 9.72142 20.9446 8.68808C20.5087 7.65473 19.8698 6.71593 19.0646 5.92521C18.2593 5.13449 17.3035 4.50736 16.2516 4.07952C15.1997 3.65168 14.0724 3.43149 12.9339 3.43149ZM12.9339 21.6666H4.4293C4.24621 21.6684 4.06462 21.6344 3.89507 21.5667C3.72405 21.4985 3.5688 21.3973 3.43844 21.2693C3.30809 21.1413 3.20525 20.9891 3.13593 20.8216C3.06719 20.6555 3.03275 20.4778 3.03455 20.2987V11.9476C3.03455 9.37049 4.0771 6.8986 5.9334 5.0758C7.78976 3.25295 10.3079 2.22858 12.9339 2.22858C14.2342 2.22858 15.5216 2.48006 16.7228 2.96862C17.924 3.45718 19.0153 4.17323 19.9344 5.0758C20.8536 5.97837 21.5826 7.04979 22.08 8.22883C22.5773 9.40788 22.8333 10.6715 22.8333 11.9476C22.8333 13.2237 22.5773 14.4873 22.08 15.6664C21.5826 16.8454 20.8536 17.9168 19.9344 18.8194C19.0153 19.722 17.924 20.438 16.7228 20.9266C15.5216 21.4151 14.2342 21.6666 12.9339 21.6666Z" fill="#00B37E"/>
<path fill-rule="evenodd" clip-rule="evenodd" d="M9.09015 10.7583C9.09015 10.4262 9.36515 10.1569 9.70437 10.1569H15.7599C16.0991 10.1569 16.3741 10.4262 16.3741 10.7583C16.3741 11.0905 16.0991 11.3598 15.7599 11.3598H9.70437C9.36515 11.3598 9.09015 11.0905 9.09015 10.7583Z" fill="#996DFF"/>
<path fill-rule="evenodd" clip-rule="evenodd" d="M9.09015 13.9297C9.09015 13.5975 9.36515 13.3282 9.70437 13.3282H15.7599C16.0991 13.3282 16.3741 13.5975 16.3741 13.9297C16.3741 14.2619 16.0991 14.5311 15.7599 14.5311H9.70437C9.36515 14.5311 9.09015 14.2619 9.09015 13.9297Z" fill="#996DFF"/>
<path d="M116.77 10.4652V12.2668H107.561V10.4652H116.77ZM107.912 3.28167V19.9896H105.656V3.28167H107.912ZM118.733 3.28167V19.9896H116.489V3.28167H118.733Z" fill="#00B37E"/>
<path d="M127.661 20.2191C126.781 20.2191 125.982 20.0738 125.266 19.7831C124.557 19.4847 123.945 19.0678 123.431 18.5323C122.925 17.9968 122.535 17.3618 122.262 16.6274C121.99 15.893 121.853 15.0897 121.853 14.2176V13.7356C121.853 12.7258 122.005 11.8269 122.309 11.0389C122.613 10.2433 123.026 9.5701 123.548 9.01929C124.07 8.46848 124.662 8.05154 125.324 7.76849C125.986 7.48543 126.672 7.3439 127.381 7.3439C128.285 7.3439 129.064 7.49691 129.718 7.80291C130.38 8.10892 130.922 8.53733 131.342 9.08814C131.763 9.6313 132.075 10.2739 132.277 11.016C132.48 11.7504 132.581 12.5537 132.581 13.4258V14.3782H123.139V12.6455H130.419V12.4848C130.388 11.934 130.271 11.3985 130.069 10.8783C129.874 10.3581 129.562 9.92966 129.134 9.59305C128.705 9.25644 128.121 9.08814 127.381 9.08814C126.89 9.08814 126.438 9.19142 126.025 9.39797C125.612 9.59688 125.258 9.89523 124.962 10.293C124.666 10.6908 124.436 11.1766 124.272 11.7504C124.109 12.3242 124.027 12.9859 124.027 13.7356V14.2176C124.027 14.8066 124.109 15.3613 124.272 15.8815C124.444 16.394 124.689 16.8454 125.009 17.2356C125.336 17.6257 125.729 17.9317 126.189 18.1536C126.656 18.3754 127.186 18.4864 127.778 18.4864C128.542 18.4864 129.188 18.3334 129.718 18.0274C130.248 17.7213 130.711 17.3121 131.109 16.7995L132.418 17.8208C132.145 18.2263 131.798 18.6126 131.377 18.9798C130.957 19.347 130.439 19.6454 129.823 19.8749C129.216 20.1044 128.495 20.2191 127.661 20.2191Z" fill="#00B37E"/>
<path d="M137.454 2.36365V19.9896H135.281V2.36365H137.454Z" fill="#00B37E"/>
<path d="M143.087 9.96026V24.7633H140.913V7.57341H142.9L143.087 9.96026ZM151.606 13.6782V13.9192C151.606 14.8219 151.497 15.6596 151.279 16.4323C151.061 17.1973 150.741 17.8629 150.321 18.429C149.908 18.9951 149.398 19.435 148.79 19.7486C148.182 20.0623 147.485 20.2191 146.698 20.2191C145.896 20.2191 145.187 20.0891 144.571 19.829C143.956 19.5689 143.434 19.1902 143.005 18.6929C142.577 18.1957 142.234 17.5989 141.977 16.9028C141.728 16.2066 141.556 15.4225 141.463 14.5504V13.2651C141.556 12.3471 141.731 11.5247 141.989 10.798C142.246 10.0712 142.585 9.45152 143.005 8.93896C143.434 8.41875 143.952 8.02477 144.559 7.75701C145.167 7.48161 145.868 7.3439 146.663 7.3439C147.458 7.3439 148.163 7.49691 148.778 7.80291C149.394 8.10127 149.912 8.52968 150.332 9.08814C150.753 9.6466 151.069 10.316 151.279 11.0963C151.497 11.869 151.606 12.7296 151.606 13.6782ZM149.433 13.9192V13.6782C149.433 13.0586 149.366 12.4772 149.234 11.934C149.102 11.3832 148.895 10.9012 148.615 10.4881C148.342 10.0674 147.991 9.7384 147.563 9.50125C147.134 9.25644 146.624 9.13404 146.032 9.13404C145.487 9.13404 145.011 9.22584 144.606 9.40945C144.209 9.59305 143.87 9.84168 143.59 10.1553C143.309 10.4613 143.079 10.8133 142.9 11.2111C142.729 11.6012 142.6 12.0067 142.514 12.4274V15.3995C142.67 15.935 142.888 16.4399 143.169 16.9143C143.449 17.3809 143.823 17.7596 144.291 18.0503C144.758 18.3334 145.346 18.4749 146.055 18.4749C146.64 18.4749 147.142 18.3563 147.563 18.1192C147.991 17.8744 148.342 17.5416 148.615 17.1208C148.895 16.7001 149.102 16.2181 149.234 15.6749C149.366 15.1241 149.433 14.5389 149.433 13.9192Z" fill="#00B37E"/>
</svg>
